League Mono-Light.ufo
<glyph name="exclam" format="1">
  <advance width="600"/>
  <unicode hex="0021"/>
  <outline>
    <contour>
      <point x="326" y="-11"/>
      <point x="349" y="12"/>
      <point x="349" y="42" type="curve" smooth="yes"/>
      <point x="349" y="71"/>
      <point x="326" y="95"/>
      <point x="296" y="95" type="curve" smooth="yes"/>
      <point x="266" y="95"/>
      <point x="243" y="71"/>
      <point x="243" y="42" type="curve" smooth="yes"/>
      <point x="243" y="12"/>
      <point x="266" y="-11"/>
      <point x="296" y="-11" type="curve" smooth="yes"/>
    </contour>
    <contour>
      <point x="322" y="193" type="line"/>
      <point x="330" y="700" type="line"/>
      <point x="261" y="700" type="line"/>
      <point x="269" y="193" type="line"/>
    </contour>
  </outline>
</glyph>
<glyph name="numbersign" format="1">
  <advance width="600"/>
  <unicode hex="0023"/>
  <outline>
    <contour>
      <point x="196" y="700" type="line"/>
      <point x="115" y="0" type="line"/>
      <point x="169" y="0" type="line"/>
      <point x="250" y="700" type="line"/>
    </contour>
    <contour>
      <point x="412" y="700" type="line"/>
      <point x="331" y="0" type="line"/>
      <point x="385" y="0" type="line"/>
      <point x="466" y="700" type="line"/>
    </contour>
    <contour>
      <point x="25" y="199" type="line"/>
      <point x="519" y="199" type="line"/>
      <point x="525" y="250" type="line"/>
      <point x="32" y="250" type="line"/>
    </contour>
    <contour>
      <point x="58" y="444" type="line"/>
      <point x="552" y="444" type="line"/>
      <point x="558" y="495" type="line"/>
      <point x="65" y="495" type="line"/>
    </contour>
  </outline>
</glyph>
<glyph name="dollar" format="1">
  <advance width="600"/>
  <unicode hex="0024"/>
  <outline>
    <contour>
      <point x="276" y="-130" type="line"/>
      <point x="325" y="-130" type="line"/>
      <point x="325" y="800" type="line"/>
      <point x="276" y="800" type="line"/>
    </contour>
    <contour>
      <point x="210" y="428"/>
      <point x="147" y="473"/>
      <point x="147" y="542" type="curve" smooth="yes"/>
      <point x="147" y="622"/>
      <point x="219" y="654"/>
      <point x="306" y="654" type="curve" smooth="yes"/>
      <point x="383" y="654"/>
      <point x="439" y="623"/>
      <point x="467" y="563" type="curve"/>
      <point x="521" y="591" type="line"/>
      <point x="481" y="669"/>
      <point x="402" y="706"/>
      <point x="310" y="706" type="curve" smooth="yes"/>
      <point x="188" y="706"/>
      <point x="90" y="657"/>
      <point x="90" y="542" type="curve" smooth="yes"/>
      <point x="90" y="435"/>
      <point x="189" y="375"/>
      <point x="293" y="336" type="curve" smooth="yes"/>
      <point x="404" y="294"/>
      <point x="476" y="258"/>
      <point x="476" y="181" type="curve" smooth="yes"/>
      <point x="476" y="88"/>
      <point x="391" y="41"/>
      <point x="295" y="41" type="curve" smooth="yes"/>
      <point x="205" y="41"/>
      <point x="147" y="73"/>
      <point x="115" y="135" type="curve"/>
      <point x="60" y="106" type="line"/>
      <point x="103" y="24"/>
      <point x="186" y="-11"/>
      <point x="295" y="-11" type="curve" smooth="yes"/>
      <point x="424" y="-11"/>
      <point x="532" y="52"/>
      <point x="532" y="183" type="curve" smooth="yes"/>
      <point x="532" y="295"/>
      <point x="432" y="342"/>
      <point x="293" y="396" type="curve" smooth="yes"/>
    </contour>
  </outline>
</glyph>
<glyph name="percent" format="1">
  <advance width="600"/>
  <unicode hex="0025"/>
  <outline>
    <contour>
      <point x="479" y="700" type="line"/>
      <point x="64" y="0" type="line"/>
      <point x="127" y="0" type="line"/>
      <point x="542" y="700" type="line"/>
    </contour>
    <contour>
      <point x="222" y="426"/>
      <point x="276" y="460"/>
      <point x="276" y="557" type="curve" smooth="yes"/>
      <point x="276" y="653"/>
      <point x="222" y="687"/>
      <point x="165" y="687" type="curve" smooth="yes"/>
      <point x="108" y="687"/>
      <point x="54" y="653"/>
      <point x="54" y="557" type="curve" smooth="yes"/>
      <point x="54" y="460"/>
      <point x="108" y="426"/>
      <point x="165" y="426" type="curve" smooth="yes"/>
    </contour>
    <contour>
      <point x="131" y="471"/>
      <point x="104" y="491"/>
      <point x="104" y="557" type="curve" smooth="yes"/>
      <point x="104" y="622"/>
      <point x="131" y="642"/>
      <point x="165" y="642" type="curve" smooth="yes"/>
      <point x="199" y="642"/>
      <point x="226" y="622"/>
      <point x="226" y="557" type="curve" smooth="yes"/>
      <point x="226" y="491"/>
      <point x="199" y="471"/>
      <point x="165" y="471" type="curve" smooth="yes"/>
    </contour>
    <contour>
      <point x="504" y="6"/>
      <point x="558" y="40"/>
      <point x="558" y="137" type="curve" smooth="yes"/>
      <point x="558" y="233"/>
      <point x="504" y="267"/>
      <point x="447" y="267" type="curve" smooth="yes"/>
      <point x="390" y="267"/>
      <point x="336" y="233"/>
      <point x="336" y="137" type="curve" smooth="yes"/>
      <point x="336" y="40"/>
      <point x="390" y="6"/>
      <point x="447" y="6" type="curve" smooth="yes"/>
    </contour>
    <contour>
      <point x="413" y="51"/>
      <point x="386" y="71"/>
      <point x="386" y="137" type="curve" smooth="yes"/>
      <point x="386" y="202"/>
      <point x="413" y="222"/>
      <point x="447" y="222" type="curve" smooth="yes"/>
      <point x="481" y="222"/>
      <point x="508" y="202"/>
      <point x="508" y="137" type="curve" smooth="yes"/>
      <point x="508" y="71"/>
      <point x="481" y="51"/>
      <point x="447" y="51" type="curve" smooth="yes"/>
    </contour>
  </outline>
</glyph>
<glyph name="ampersand" format="1">
  <advance width="600"/>
  <unicode hex="0026"/>
  <outline>
    <contour>
      <point x="363" y="-7"/>
      <point x="424" y="37"/>
      <point x="440" y="52" type="curve"/>
      <point x="472" y="0" type="line"/>
      <point x="530" y="0" type="line"/>
      <point x="475" y="86" type="line"/>
      <point x="504" y="126"/>
      <point x="526" y="178"/>
      <point x="526" y="290" type="curve" smooth="yes"/>
      <point x="526" y="293" type="line"/>
      <point x="474" y="293" type="line"/>
      <point x="474" y="290" type="line" smooth="yes"/>
      <point x="474" y="211"/>
      <point x="466" y="161"/>
      <point x="446" y="131" type="curve"/>
      <point x="287" y="382" type="line"/>
      <point x="335" y="422"/>
      <point x="403" y="493"/>
      <point x="406" y="575" type="curve" smooth="yes"/>
      <point x="409" y="655"/>
      <point x="363" y="706"/>
      <point x="274" y="706" type="curve" smooth="yes"/>
      <point x="185" y="706"/>
      <point x="128" y="653"/>
      <point x="134" y="574" type="curve" smooth="yes"/>
      <point x="139" y="511"/>
      <point x="175" y="459"/>
      <point x="219" y="395" type="curve"/>
      <point x="162" y="353"/>
      <point x="73" y="276"/>
      <point x="65" y="182" type="curve" smooth="yes"/>
      <point x="57" y="71"/>
      <point x="125" y="-9"/>
      <point x="268" y="-8" type="curve" smooth="yes"/>
    </contour>
    <contour>
      <point x="158" y="43"/>
      <point x="115" y="107"/>
      <point x="121" y="181" type="curve" smooth="yes"/>
      <point x="127" y="256"/>
      <point x="200" y="316"/>
      <point x="245" y="353" type="curve"/>
      <point x="412" y="94" type="line"/>
      <point x="402" y="85"/>
      <point x="360" y="45"/>
      <point x="266" y="44" type="curve" smooth="yes"/>
    </contour>
    <contour>
      <point x="236" y="456"/>
      <point x="186" y="524"/>
      <point x="186" y="583" type="curve" smooth="yes"/>
      <point x="186" y="639"/>
      <point x="233" y="661"/>
      <point x="274" y="661" type="curve" smooth="yes"/>
      <point x="315" y="661"/>
      <point x="356" y="641"/>
      <point x="356" y="582" type="curve" smooth="yes"/>
      <point x="356" y="514"/>
      <point x="293" y="454"/>
      <point x="259" y="422" type="curve"/>
    </contour>
  </outline>
</glyph>
<glyph name="quotesingle" format="1">
  <advance width="600"/>
  <unicode hex="0027"/>
  <outline>
    <contour>
      <point x="282" y="541" type="line"/>
      <point x="322" y="541" type="line"/>
      <point x="335" y="757" type="line"/>
      <point x="269" y="757" type="line"/>
    </contour>
  </outline>
</glyph>
<glyph name="parenleft" format="1">
  <advance width="600"/>
  <unicode hex="0028"/>
  <outline>
    <contour>
      <point x="454" y="-193" type="line"/>
      <point x="442" y="-175"/>
      <point x="300" y="19"/>
      <point x="300" y="294" type="curve" smooth="yes"/>
      <point x="300" y="571"/>
      <point x="446" y="766"/>
      <point x="456" y="779" type="curve"/>
      <point x="409" y="803" type="line"/>
      <point x="379" y="762"/>
      <point x="243" y="580"/>
      <point x="243" y="294" type="curve" smooth="yes"/>
      <point x="243" y="8"/>
      <point x="378" y="-176"/>
      <point x="408" y="-217" type="curve"/>
    </contour>
  </outline>
</glyph>
<glyph name="asterisk" format="1">
  <advance width="600"/>
  <unicode hex="002A"/>
  <outline>
    <contour>
      <point x="407" y="550" type="line"/>
      <point x="319" y="664" type="line"/>
      <point x="287" y="639" type="line"/>
      <point x="368" y="522" type="line"/>
    </contour>
    <contour>
      <point x="311" y="639" type="line"/>
      <point x="279" y="664" type="line"/>
      <point x="191" y="550" type="line"/>
      <point x="230" y="522" type="line"/>
    </contour>
    <contour>
      <point x="299" y="676" type="line"/>
      <point x="169" y="726" type="line"/>
      <point x="153" y="680" type="line"/>
      <point x="287" y="639" type="line"/>
    </contour>
    <contour>
      <point x="313" y="632"/>
      <point x="324" y="643"/>
      <point x="324" y="658" type="curve" smooth="yes"/>
      <point x="324" y="671"/>
      <point x="313" y="683"/>
      <point x="299" y="683" type="curve" smooth="yes"/>
      <point x="284" y="683"/>
      <point x="273" y="671"/>
      <point x="273" y="658" type="curve" smooth="yes"/>
      <point x="273" y="643"/>
      <point x="284" y="632"/>
      <point x="299" y="632" type="curve" smooth="yes"/>
    </contour>
    <contour>
      <point x="319" y="664" type="line"/>
      <point x="324" y="800" type="line"/>
      <point x="275" y="800" type="line"/>
      <point x="279" y="664" type="line"/>
    </contour>
    <contour>
      <point x="444" y="680" type="line"/>
      <point x="429" y="726" type="line"/>
      <point x="299" y="676" type="line"/>
      <point x="311" y="639" type="line"/>
    </contour>
  </outline>
</glyph>
<glyph name="plus" format="1">
  <advance width="600"/>
  <unicode hex="002B"/>
  <outline>
    <contour>
      <point x="115" y="278" type="line"/>
      <point x="490" y="278" type="line"/>
      <point x="490" y="330" type="line"/>
      <point x="115" y="330" type="line"/>
    </contour>
    <contour>
      <point x="329" y="116" type="line"/>
      <point x="329" y="491" type="line"/>
      <point x="277" y="491" type="line"/>
      <point x="277" y="116" type="line"/>
    </contour>
  </outline>
</glyph>
<glyph name="comma" format="1">
  <advance width="600"/>
  <unicode hex="002C"/>
  <outline>
    <contour>
      <point x="297" y="-10"/>
      <point x="325" y="18"/>
      <point x="325" y="53" type="curve" smooth="yes"/>
      <point x="325" y="86"/>
      <point x="297" y="114"/>
      <point x="263" y="114" type="curve" smooth="yes"/>
      <point x="229" y="114"/>
      <point x="201" y="86"/>
      <point x="201" y="53" type="curve" smooth="yes"/>
      <point x="201" y="18"/>
      <point x="229" y="-10"/>
      <point x="263" y="-10" type="curve" smooth="yes"/>
    </contour>
    <contour>
      <point x="218" y="-99" type="line"/>
      <point x="261" y="-118" type="line"/>
      <point x="320" y="29" type="line"/>
      <point x="256" y="21" type="line"/>
    </contour>
  </outline>
</glyph>
<glyph name="hyphen" format="1">
  <advance width="600"/>
  <unicode hex="002D"/>
  <outline>
    <contour>
      <point x="154" y="278" type="line"/>
      <point x="440" y="278" type="line"/>
      <point x="440" y="330" type="line"/>
      <point x="154" y="330" type="line"/>
    </contour>
  </outline>
</glyph>
<glyph name="period" format="1">
  <advance width="600"/>
  <unicode hex="002E"/>
  <outline>
    <contour>
      <point x="335" y="-11"/>
      <point x="367" y="20"/>
      <point x="367" y="59" type="curve" smooth="yes"/>
      <point x="367" y="99"/>
      <point x="335" y="130"/>
      <point x="296" y="130" type="curve" smooth="yes"/>
      <point x="257" y="130"/>
      <point x="225" y="99"/>
      <point x="225" y="59" type="curve" smooth="yes"/>
      <point x="225" y="20"/>
      <point x="257" y="-11"/>
      <point x="296" y="-11" type="curve" smooth="yes"/>
    </contour>
  </outline>
</glyph>
<glyph name="slash" format="1">
  <advance width="600"/>
  <unicode hex="002F"/>
  <outline>
    <contour>
      <point x="397" y="800" type="line"/>
      <point x="148" y="-142" type="line"/>
      <point x="210" y="-142" type="line"/>
      <point x="459" y="800" type="line"/>
    </contour>
  </outline>
</glyph>
<glyph name="zero" format="1">
  <advance width="600"/>
  <unicode hex="0030"/>
  <outline>
    <contour>
      <point x="400" y="-11"/>
      <point x="508" y="66"/>
      <point x="508" y="348" type="curve" smooth="yes"/>
      <point x="508" y="629"/>
      <point x="400" y="706"/>
      <point x="302" y="706" type="curve" smooth="yes"/>
      <point x="197" y="706"/>
      <point x="95" y="629"/>
      <point x="95" y="348" type="curve" smooth="yes"/>
      <point x="95" y="66"/>
      <point x="197" y="-11"/>
      <point x="302" y="-11" type="curve" smooth="yes"/>
    </contour>
    <contour>
      <point x="221" y="41"/>
      <point x="154" y="125"/>
      <point x="154" y="348" type="curve" smooth="yes"/>
      <point x="154" y="571"/>
      <point x="221" y="654"/>
      <point x="302" y="654" type="curve" smooth="yes"/>
      <point x="381" y="654"/>
      <point x="449" y="571"/>
      <point x="449" y="348" type="curve" smooth="yes"/>
      <point x="449" y="125"/>
      <point x="381" y="41"/>
      <point x="302" y="41" type="curve" smooth="yes"/>
    </contour>
    <contour>
      <point x="324" y="276"/>
      <point x="349" y="291"/>
      <point x="349" y="348" type="curve" smooth="yes"/>
      <point x="349" y="404"/>
      <point x="324" y="419"/>
      <point x="302" y="419" type="curve" smooth="yes"/>
      <point x="279" y="419"/>
      <point x="254" y="404"/>
      <point x="254" y="348" type="curve" smooth="yes"/>
      <point x="254" y="291"/>
      <point x="279" y="276"/>
      <point x="302" y="276" type="curve" smooth="yes"/>
    </contour>
  </outline>
</glyph>
<glyph name="one" format="1">
  <advance width="600"/>
  <unicode hex="0031"/>
  <outline>
    <contour>
      <point x="138" y="547" type="line"/>
      <point x="287" y="635" type="line"/>
      <point x="293" y="700" type="line"/>
      <point x="113" y="593" type="line"/>
    </contour>
    <contour>
      <point x="344" y="31" type="line"/>
      <point x="344" y="700" type="line"/>
      <point x="293" y="700" type="line"/>
      <point x="287" y="624" type="line"/>
      <point x="287" y="19" type="line"/>
    </contour>
    <contour>
      <point x="137" y="0" type="line"/>
      <point x="485" y="0" type="line"/>
      <point x="485" y="51" type="line"/>
      <point x="137" y="51" type="line"/>
    </contour>
  </outline>
</glyph>
<glyph name="two" format="1">
  <advance width="600"/>
  <unicode hex="0032"/>
  <outline>
    <contour>
      <point x="180" y="51" type="line"/>
      <point x="177" y="45"/>
      <point x="254" y="111"/>
      <point x="302" y="160" type="curve" smooth="yes"/>
      <point x="419" y="274"/>
      <point x="502" y="390"/>
      <point x="502" y="506" type="curve" smooth="yes"/>
      <point x="502" y="613"/>
      <point x="436" y="706"/>
      <point x="305" y="706" type="curve" smooth="yes"/>
      <point x="220" y="706"/>
      <point x="138" y="667"/>
      <point x="97" y="602" type="curve"/>
      <point x="152" y="573" type="line"/>
      <point x="177" y="621"/>
      <point x="238" y="654"/>
      <point x="303" y="654" type="curve" smooth="yes"/>
      <point x="394" y="654"/>
      <point x="441" y="588"/>
      <point x="441" y="506" type="curve" smooth="yes"/>
      <point x="441" y="411"/>
      <point x="371" y="301"/>
      <point x="260" y="195" type="curve" smooth="yes"/>
      <point x="217" y="152"/>
      <point x="156" y="100"/>
      <point x="94" y="51" type="curve"/>
    </contour>
    <contour>
      <point x="501" y="0" type="line"/>
      <point x="501" y="51" type="line"/>
      <point x="94" y="51" type="line"/>
      <point x="94" y="0" type="line"/>
    </contour>
  </outline>
</glyph>
<glyph name="three" format="1">
  <advance width="600"/>
  <unicode hex="0033"/>
  <outline>
    <contour>
      <point x="440" y="-11"/>
      <point x="522" y="63"/>
      <point x="522" y="195" type="curve" smooth="yes"/>
      <point x="522" y="296"/>
      <point x="455" y="362"/>
      <point x="335" y="369" type="curve" smooth="yes"/>
      <point x="331" y="369"/>
      <point x="285" y="328"/>
      <point x="291" y="328" type="curve" smooth="yes"/>
      <point x="413" y="328"/>
      <point x="460" y="275"/>
      <point x="460" y="195" type="curve" smooth="yes"/>
      <point x="460" y="90"/>
      <point x="394" y="41"/>
      <point x="308" y="41" type="curve" smooth="yes"/>
      <point x="223" y="41"/>
      <point x="164" y="77"/>
      <point x="140" y="122" type="curve"/>
      <point x="86" y="93" type="line"/>
      <point x="125" y="28"/>
      <point x="205" y="-11"/>
      <point x="308" y="-11" type="curve" smooth="yes"/>
    </contour>
    <contour>
      <point x="395" y="328" type="line"/>
      <point x="395" y="380" type="line"/>
      <point x="272" y="380" type="line"/>
      <point x="272" y="328" type="line"/>
    </contour>
    <contour>
      <point x="462" y="356"/>
      <point x="507" y="434"/>
      <point x="507" y="520" type="curve" smooth="yes"/>
      <point x="507" y="651"/>
      <point x="417" y="706"/>
      <point x="303" y="706" type="curve" smooth="yes"/>
      <point x="201" y="706"/>
      <point x="129" y="660"/>
      <point x="99" y="600" type="curve"/>
      <point x="153" y="573" type="line"/>
      <point x="173" y="619"/>
      <point x="234" y="654"/>
      <point x="303" y="654" type="curve" smooth="yes"/>
      <point x="381" y="654"/>
      <point x="445" y="620"/>
      <point x="445" y="520" type="curve" smooth="yes"/>
      <point x="445" y="441"/>
      <point x="407" y="380"/>
      <point x="291" y="380" type="curve" smooth="yes"/>
      <point x="285" y="380"/>
      <point x="325" y="337"/>
      <point x="329" y="337" type="curve" smooth="yes"/>
    </contour>
  </outline>
</glyph>
<glyph name="four" format="1">
  <advance width="600"/>
  <unicode hex="0034"/>
  <outline>
    <contour>
      <point x="148" y="218" type="line"/>
      <point x="308" y="669" type="line"/>
      <point x="262" y="700" type="line"/>
      <point x="90" y="218" type="line"/>
    </contour>
    <contour>
      <point x="376" y="649" type="line"/>
      <point x="376" y="700" type="line"/>
      <point x="262" y="700" type="line"/>
      <point x="262" y="649" type="line"/>
    </contour>
    <contour>
      <point x="394" y="0" type="line"/>
      <point x="394" y="700" type="line"/>
      <point x="337" y="700" type="line"/>
      <point x="337" y="0" type="line"/>
    </contour>
    <contour>
      <point x="519" y="167" type="line"/>
      <point x="519" y="218" type="line"/>
      <point x="90" y="218" type="line"/>
      <point x="90" y="167" type="line"/>
    </contour>
  </outline>
</glyph>
<glyph name="five" format="1">
  <advance width="600"/>
  <unicode hex="0035"/>
  <outline>
    <contour>
      <point x="424" y="-11"/>
      <point x="505" y="78"/>
      <point x="505" y="231" type="curve" smooth="yes"/>
      <point x="505" y="385"/>
      <point x="435" y="464"/>
      <point x="308" y="464" type="curve" smooth="yes"/>
      <point x="218" y="464"/>
      <point x="149" y="416"/>
      <point x="129" y="336" type="curve"/>
      <point x="153" y="307" type="line"/>
      <point x="188" y="380"/>
      <point x="244" y="411"/>
      <point x="308" y="411" type="curve" smooth="yes"/>
      <point x="404" y="411"/>
      <point x="444" y="344"/>
      <point x="444" y="231" type="curve" smooth="yes"/>
      <point x="444" y="110"/>
      <point x="390" y="41"/>
      <point x="287" y="41" type="curve" smooth="yes"/>
      <point x="218" y="41"/>
      <point x="161" y="64"/>
      <point x="129" y="115" type="curve"/>
      <point x="75" y="86" type="line"/>
      <point x="120" y="20"/>
      <point x="195" y="-11"/>
      <point x="284" y="-11" type="curve" smooth="yes"/>
    </contour>
    <contour>
      <point x="188" y="673" type="line"/>
      <point x="136" y="700" type="line"/>
      <point x="101" y="330" type="line"/>
      <point x="153" y="307" type="line"/>
    </contour>
    <contour>
      <point x="479" y="649" type="line"/>
      <point x="479" y="700" type="line"/>
      <point x="136" y="700" type="line"/>
      <point x="136" y="649" type="line"/>
    </contour>
  </outline>
</glyph>
<glyph name="six" format="1">
  <advance width="600"/>
  <unicode hex="0036"/>
  <outline>
    <contour>
      <point x="465" y="687" type="line"/>
      <point x="439" y="700"/>
      <point x="396" y="709"/>
      <point x="347" y="706" type="curve" smooth="yes"/>
      <point x="211" y="698"/>
      <point x="82" y="590"/>
      <point x="82" y="328" type="curve" smooth="yes"/>
      <point x="82" y="81"/>
      <point x="164" y="-11"/>
      <point x="305" y="-11" type="curve"/>
      <point x="305" y="41" type="line"/>
      <point x="197" y="41"/>
      <point x="143" y="120"/>
      <point x="143" y="328" type="curve" smooth="yes"/>
      <point x="143" y="556"/>
      <point x="251" y="647"/>
      <point x="348" y="653" type="curve" smooth="yes"/>
      <point x="383" y="655"/>
      <point x="417" y="650"/>
      <point x="439" y="637" type="curve"/>
    </contour>
    <contour>
      <point x="305" y="-11" type="line"/>
      <point x="442" y="-11"/>
      <point x="515" y="80"/>
      <point x="515" y="231" type="curve" smooth="yes"/>
      <point x="515" y="384"/>
      <point x="451" y="464"/>
      <point x="320" y="464" type="curve" smooth="yes"/>
      <point x="229" y="464"/>
      <point x="148" y="424"/>
      <point x="112" y="326" type="curve"/>
      <point x="141" y="296" type="line"/>
      <point x="171" y="383"/>
      <point x="247" y="412"/>
      <point x="320" y="412" type="curve" smooth="yes"/>
      <point x="412" y="412"/>
      <point x="454" y="351"/>
      <point x="454" y="231" type="curve" smooth="yes"/>
      <point x="454" y="113"/>
      <point x="403" y="41"/>
      <point x="305" y="41" type="curve"/>
    </contour>
  </outline>
</glyph>
<glyph name="seven" format="1">
  <advance width="600"/>
  <unicode hex="0037"/>
  <outline>
    <contour>
      <point x="441" y="636" type="line"/>
      <point x="155" y="0" type="line"/>
      <point x="235" y="0" type="line"/>
      <point x="515" y="636" type="line"/>
    </contour>
    <contour>
      <point x="515" y="700" type="line"/>
      <point x="101" y="700" type="line"/>
      <point x="101" y="636" type="line"/>
      <point x="515" y="636" type="line"/>
    </contour>
  </outline>
</glyph>
<glyph name="eight" format="1">
  <advance width="600"/>
  <unicode hex="0038"/>
  <outline>
    <contour>
      <point x="430" y="-11"/>
      <point x="525" y="55"/>
      <point x="525" y="198" type="curve" smooth="yes"/>
      <point x="525" y="334"/>
      <point x="415" y="395"/>
      <point x="303" y="395" type="curve" smooth="yes"/>
      <point x="187" y="395"/>
      <point x="80" y="334"/>
      <point x="80" y="198" type="curve" smooth="yes"/>
      <point x="80" y="55"/>
      <point x="175" y="-11"/>
      <point x="303" y="-11" type="curve" smooth="yes"/>
    </contour>
    <contour>
      <point x="205" y="41"/>
      <point x="141" y="94"/>
      <point x="141" y="197" type="curve" smooth="yes"/>
      <point x="141" y="297"/>
      <point x="205" y="342"/>
      <point x="303" y="342" type="curve" smooth="yes"/>
      <point x="400" y="342"/>
      <point x="464" y="297"/>
      <point x="464" y="197" type="curve" smooth="yes"/>
      <point x="464" y="94"/>
      <point x="400" y="41"/>
      <point x="303" y="41" type="curve" smooth="yes"/>
    </contour>
    <contour>
      <point x="409" y="342"/>
      <point x="495" y="401"/>
      <point x="495" y="524" type="curve" smooth="yes"/>
      <point x="495" y="646"/>
      <point x="407" y="707"/>
      <point x="303" y="707" type="curve" smooth="yes"/>
      <point x="198" y="707"/>
      <point x="110" y="646"/>
      <point x="110" y="524" type="curve" smooth="yes"/>
      <point x="110" y="401"/>
      <point x="196" y="342"/>
      <point x="303" y="342" type="curve" smooth="yes"/>
    </contour>
    <contour>
      <point x="208" y="395"/>
      <point x="171" y="445"/>
      <point x="171" y="524" type="curve" smooth="yes"/>
      <point x="171" y="615"/>
      <point x="224" y="655"/>
      <point x="303" y="655" type="curve" smooth="yes"/>
      <point x="381" y="655"/>
      <point x="434" y="615"/>
      <point x="434" y="524" type="curve" smooth="yes"/>
      <point x="434" y="445"/>
      <point x="401" y="395"/>
      <point x="303" y="395" type="curve" smooth="yes"/>
    </contour>
  </outline>
</glyph>
<glyph name="nine" format="1">
  <advance width="600"/>
  <unicode hex="0039"/>
  <outline>
    <contour>
      <point x="292" y="707" type="line"/>
      <point x="167" y="707"/>
      <point x="82" y="616"/>
      <point x="82" y="465" type="curve" smooth="yes"/>
      <point x="82" y="312"/>
      <point x="155" y="232"/>
      <point x="280" y="232" type="curve" smooth="yes"/>
      <point x="371" y="232"/>
      <point x="427" y="273"/>
      <point x="475" y="363" type="curve"/>
      <point x="456" y="412" type="line"/>
      <point x="426" y="338"/>
      <point x="366" y="284"/>
      <point x="277" y="284" type="curve" smooth="yes"/>
      <point x="186" y="284"/>
      <point x="143" y="345"/>
      <point x="143" y="465" type="curve" smooth="yes"/>
      <point x="143" y="583"/>
      <point x="197" y="655"/>
      <point x="292" y="655" type="curve"/>
    </contour>
    <contour>
      <point x="139" y="0" type="line"/>
      <point x="151" y="0"/>
      <point x="230" y="-1"/>
      <point x="307" y="27" type="curve" smooth="yes"/>
      <point x="428" y="70"/>
      <point x="515" y="173"/>
      <point x="515" y="404" type="curve" smooth="yes"/>
      <point x="515" y="633"/>
      <point x="427" y="707"/>
      <point x="292" y="707" type="curve"/>
      <point x="292" y="655" type="line"/>
      <point x="397" y="655"/>
      <point x="455" y="600"/>
      <point x="455" y="404" type="curve" smooth="yes"/>
      <point x="455" y="206"/>
      <point x="393" y="117"/>
      <point x="297" y="78" type="curve" smooth="yes"/>
      <point x="234" y="54"/>
      <point x="149" y="51"/>
      <point x="139" y="51" type="curve"/>
    </contour>
  </outline>
</glyph>
<glyph name="less" format="1">
  <advance width="600"/>
  <unicode hex="003C"/>
  <outline>
    <contour>
      <point x="157" y="254" type="line"/>
      <point x="479" y="520" type="line"/>
      <point x="448" y="562" type="line"/>
      <point x="122" y="320" type="line"/>
    </contour>
    <contour>
      <point x="122" y="257" type="line"/>
      <point x="147" y="257" type="line"/>
      <point x="147" y="320" type="line"/>
      <point x="122" y="320" type="line"/>
    </contour>
    <contour>
      <point x="448" y="15" type="line"/>
      <point x="479" y="57" type="line"/>
      <point x="157" y="323" type="line"/>
      <point x="122" y="257" type="line"/>
    </contour>
  </outline>
</glyph>
<glyph name="equal" format="1">
  <advance width="600"/>
  <unicode hex="003D"/>
  <outline>
    <contour>
      <point x="111" y="186" type="line"/>
      <point x="486" y="186" type="line"/>
      <point x="486" y="238" type="line"/>
      <point x="111" y="238" type="line"/>
    </contour>
    <contour>
      <point x="111" y="370" type="line"/>
      <point x="486" y="370" type="line"/>
      <point x="486" y="422" type="line"/>
      <point x="111" y="422" type="line"/>
    </contour>
  </outline>
</glyph>
<glyph name="question" format="1">
  <advance width="600"/>
  <unicode hex="003F"/>
  <outline>
    <contour>
      <point x="313" y="193" type="line"/>
      <point x="313" y="234" type="line"/>
      <point x="313" y="338"/>
      <point x="493" y="391"/>
      <point x="501" y="520" type="curve" smooth="yes"/>
      <point x="508" y="638"/>
      <point x="428" y="706"/>
      <point x="303" y="706" type="curve" smooth="yes"/>
      <point x="206" y="706"/>
      <point x="127" y="658"/>
      <point x="98" y="602" type="curve"/>
      <point x="152" y="573" type="line"/>
      <point x="175" y="618"/>
      <point x="232" y="655"/>
      <point x="303" y="655" type="curve" smooth="yes"/>
      <point x="373" y="655"/>
      <point x="448" y="624"/>
      <point x="440" y="520" type="curve" smooth="yes"/>
      <point x="432" y="402"/>
      <point x="257" y="373"/>
      <point x="257" y="226" type="curve"/>
      <point x="257" y="193" type="line"/>
    </contour>
    <contour>
      <point x="316" y="-11"/>
      <point x="339" y="12"/>
      <point x="339" y="42" type="curve" smooth="yes"/>
      <point x="339" y="71"/>
      <point x="316" y="95"/>
      <point x="286" y="95" type="curve" smooth="yes"/>
      <point x="256" y="95"/>
      <point x="233" y="71"/>
      <point x="233" y="42" type="curve" smooth="yes"/>
      <point x="233" y="12"/>
      <point x="256" y="-11"/>
      <point x="286" y="-11" type="curve" smooth="yes"/>
    </contour>
  </outline>
</glyph>
<glyph name="at" format="1">
  <advance width="600"/>
  <unicode hex="0040"/>
  <outline>
    <contour>
      <point x="340" y="-11"/>
      <point x="392" y="5"/>
      <point x="404" y="11" type="curve"/>
      <point x="380" y="56" type="line"/>
      <point x="371" y="53"/>
      <point x="331" y="37"/>
      <point x="263" y="39" type="curve" smooth="yes"/>
      <point x="123" y="44"/>
      <point x="48" y="166"/>
      <point x="67" y="348" type="curve" smooth="yes"/>
      <point x="90" y="568"/>
      <point x="191" y="659"/>
      <point x="343" y="658" type="curve" smooth="yes"/>
      <point x="507" y="657"/>
      <point x="556" y="547"/>
      <point x="539" y="361" type="curve" smooth="yes"/>
      <point x="529" y="235"/>
      <point x="499" y="160"/>
      <point x="444" y="171" type="curve" smooth="yes"/>
      <point x="401" y="180"/>
      <point x="408" y="280"/>
      <point x="415" y="341" type="curve" smooth="yes"/>
      <point x="419" y="377"/>
      <point x="436" y="529"/>
      <point x="436" y="529" type="curve" smooth="yes"/>
      <point x="436" y="529"/>
      <point x="397" y="549"/>
      <point x="336" y="551" type="curve" smooth="yes"/>
      <point x="241" y="554"/>
      <point x="169" y="491"/>
      <point x="156" y="347" type="curve" smooth="yes"/>
      <point x="143" y="201"/>
      <point x="191" y="145"/>
      <point x="268" y="145" type="curve" smooth="yes"/>
      <point x="324" y="145"/>
      <point x="364" y="187"/>
      <point x="373" y="216" type="curve"/>
      <point x="374" y="184"/>
      <point x="388" y="139"/>
      <point x="437" y="128" type="curve" smooth="yes"/>
      <point x="525" y="110"/>
      <point x="573" y="194"/>
      <point x="587" y="351" type="curve" smooth="yes"/>
      <point x="610" y="608"/>
      <point x="513" y="704"/>
      <point x="353" y="706" type="curve" smooth="yes"/>
      <point x="198" y="708"/>
      <point x="36" y="633"/>
      <point x="14" y="348" type="curve" smooth="yes"/>
      <point x="-6" y="75"/>
      <point x="140" y="-5"/>
      <point x="263" y="-9" type="curve" smooth="yes"/>
    </contour>
    <contour>
      <point x="233" y="194"/>
      <point x="194" y="216"/>
      <point x="206" y="344" type="curve" smooth="yes"/>
      <point x="218" y="471"/>
      <point x="275" y="506"/>
      <point x="330" y="504" type="curve" smooth="yes"/>
      <point x="372" y="502"/>
      <point x="386" y="496"/>
      <point x="386" y="496" type="curve"/>
      <point x="386" y="496"/>
      <point x="369" y="357"/>
      <point x="367" y="338" type="curve" smooth="yes"/>
      <point x="357" y="242"/>
      <point x="329" y="194"/>
      <point x="278" y="194" type="curve" smooth="yes"/>
    </contour>
  </outline>
</glyph>
<glyph name="A" format="1">
  <advance width="600"/>
  <unicode hex="0041"/>
  <outline>
    <contour>
      <point x="64" y="0" type="line"/>
      <point x="122" y="0" type="line"/>
      <point x="279" y="700" type="line"/>
      <point x="221" y="700" type="line"/>
    </contour>
    <contour>
      <point x="321" y="700" type="line"/>
      <point x="478" y="0" type="line"/>
      <point x="536" y="0" type="line"/>
      <point x="379" y="700" type="line"/>
    </contour>
    <contour>
      <point x="233" y="649" type="line"/>
      <point x="367" y="649" type="line"/>
      <point x="367" y="700" type="line"/>
      <point x="233" y="700" type="line"/>
    </contour>
    <contour>
      <point x="141" y="236" type="line"/>
      <point x="459" y="236" type="line"/>
      <point x="459" y="288" type="line"/>
      <point x="141" y="288" type="line"/>
    </contour>
  </outline>
</glyph>
<glyph name="B" format="1">
  <advance width="600"/>
  <unicode hex="0042"/>
  <outline>
    <contour>
      <point x="417" y="369"/>
      <point x="491" y="392"/>
      <point x="491" y="529" type="curve" smooth="yes"/>
      <point x="491" y="690"/>
      <point x="391" y="700"/>
      <point x="307" y="700" type="curve" smooth="yes"/>
      <point x="108" y="700" type="line"/>
      <point x="108" y="0" type="line"/>
      <point x="352" y="0" type="line" smooth="yes"/>
      <point x="471" y="0"/>
      <point x="526" y="66"/>
      <point x="526" y="200" type="curve" smooth="yes"/>
      <point x="526" y="350"/>
      <point x="417" y="369"/>
      <point x="417" y="369" type="curve" smooth="yes"/>
    </contour>
    <contour>
      <point x="328" y="649" type="line" smooth="yes"/>
      <point x="387" y="649"/>
      <point x="430" y="628"/>
      <point x="430" y="525" type="curve" smooth="yes"/>
      <point x="430" y="437"/>
      <point x="400" y="387"/>
      <point x="340" y="387" type="curve" smooth="yes"/>
      <point x="165" y="387" type="line"/>
      <point x="165" y="649" type="line"/>
    </contour>
    <contour>
      <point x="165" y="51" type="line"/>
      <point x="165" y="335" type="line"/>
      <point x="360" y="335" type="line" smooth="yes"/>
      <point x="417" y="335"/>
      <point x="468" y="295"/>
      <point x="468" y="200" type="curve" smooth="yes"/>
      <point x="468" y="96"/>
      <point x="435" y="51"/>
      <point x="348" y="51" type="curve" smooth="yes"/>
    </contour>
  </outline>
</glyph>
<glyph name="C" format="1">
  <advance width="600"/>
  <unicode hex="0043"/>
  <outline>
    <contour>
      <point x="474" y="126" type="line"/>
      <point x="446" y="69"/>
      <point x="392" y="41"/>
      <point x="319" y="41" type="curve" smooth="yes"/>
      <point x="206" y="41"/>
      <point x="143" y="127"/>
      <point x="143" y="348" type="curve" smooth="yes"/>
      <point x="143" y="569"/>
      <point x="208" y="654"/>
      <point x="321" y="654" type="curve" smooth="yes"/>
      <point x="394" y="654"/>
      <point x="442" y="625"/>
      <point x="474" y="564" type="curve"/>
      <point x="527" y="591" type="line"/>
      <point x="485" y="668"/>
      <point x="417" y="706"/>
      <point x="321" y="706" type="curve"/>
      <point x="171" y="706"/>
      <point x="84" y="607"/>
      <point x="84" y="348" type="curve" smooth="yes"/>
      <point x="84" y="88"/>
      <point x="168" y="-11"/>
      <point x="319" y="-11" type="curve" smooth="yes"/>
      <point x="417" y="-11"/>
      <point x="490" y="25"/>
      <point x="527" y="98" type="curve"/>
    </contour>
  </outline>
</glyph>
<glyph name="D" format="1">
  <advance width="600"/>
  <unicode hex="0044"/>
  <outline>
    <contour>
      <point x="522" y="350" type="line"/>
      <point x="522" y="700"/>
      <point x="367" y="700"/>
      <point x="268" y="700" type="curve" smooth="yes"/>
      <point x="105" y="700" type="line"/>
      <point x="105" y="350" type="line"/>
      <point x="161" y="350" type="line"/>
      <point x="161" y="402" type="line"/>
      <point x="161" y="649" type="line"/>
      <point x="287" y="649" type="line"/>
      <point x="405" y="649"/>
      <point x="464" y="584"/>
      <point x="464" y="350" type="curve"/>
    </contour>
    <contour>
      <point x="464" y="116"/>
      <point x="405" y="51"/>
      <point x="287" y="51" type="curve"/>
      <point x="161" y="51" type="line"/>
      <point x="161" y="298" type="line"/>
      <point x="161" y="350" type="line"/>
      <point x="105" y="350" type="line"/>
      <point x="105" y="0" type="line"/>
      <point x="268" y="0" type="line" smooth="yes"/>
      <point x="367" y="0"/>
      <point x="522" y="0"/>
      <point x="522" y="350" type="curve"/>
      <point x="464" y="350" type="line"/>
    </contour>
  </outline>
</glyph>
<glyph name="E" format="1">
  <advance width="600"/>
  <unicode hex="0045"/>
  <outline>
    <contour>
      <point x="172" y="0" type="line"/>
      <point x="172" y="700" type="line"/>
      <point x="116" y="700" type="line"/>
      <point x="116" y="0" type="line"/>
    </contour>
    <contour>
      <point x="160" y="0" type="line"/>
      <point x="506" y="0" type="line"/>
      <point x="506" y="51" type="line"/>
      <point x="160" y="51" type="line"/>
    </contour>
    <contour>
      <point x="160" y="318" type="line"/>
      <point x="452" y="318" type="line"/>
      <point x="452" y="370" type="line"/>
      <point x="160" y="370" type="line"/>
    </contour>
    <contour>
      <point x="160" y="649" type="line"/>
      <point x="506" y="649" type="line"/>
      <point x="506" y="700" type="line"/>
      <point x="160" y="700" type="line"/>
    </contour>
  </outline>
</glyph>
<glyph name="F" format="1">
  <advance width="600"/>
  <unicode hex="0046"/>
  <outline>
    <contour>
      <point x="199" y="0" type="line"/>
      <point x="199" y="700" type="line"/>
      <point x="143" y="700" type="line"/>
      <point x="143" y="0" type="line"/>
    </contour>
    <contour>
      <point x="187" y="318" type="line"/>
      <point x="493" y="318" type="line"/>
      <point x="493" y="370" type="line"/>
      <point x="187" y="370" type="line"/>
    </contour>
    <contour>
      <point x="187" y="649" type="line"/>
      <point x="533" y="649" type="line"/>
      <point x="533" y="700" type="line"/>
      <point x="187" y="700" type="line"/>
    </contour>
  </outline>
</glyph>
<glyph name="G" format="1">
  <advance width="600"/>
  <unicode hex="0047"/>
  <outline>
    <contour>
      <point x="477" y="119" type="line"/>
      <point x="449" y="77"/>
      <point x="400" y="41"/>
      <point x="307" y="41" type="curve" smooth="yes"/>
      <point x="194" y="41"/>
      <point x="130" y="125"/>
      <point x="130" y="348" type="curve" smooth="yes"/>
      <point x="130" y="571"/>
      <point x="205" y="654"/>
      <point x="319" y="654" type="curve" smooth="yes"/>
      <point x="392" y="654"/>
      <point x="430" y="625"/>
      <point x="461" y="564" type="curve"/>
      <point x="514" y="591" type="line"/>
      <point x="473" y="668"/>
      <point x="414" y="706"/>
      <point x="319" y="706" type="curve"/>
      <point x="168" y="706"/>
      <point x="71" y="609"/>
      <point x="71" y="348" type="curve" smooth="yes"/>
      <point x="71" y="86"/>
      <point x="157" y="-11"/>
      <point x="307" y="-11" type="curve" smooth="yes"/>
      <point x="429" y="-11"/>
      <point x="498" y="45"/>
      <point x="530" y="92" type="curve"/>
    </contour>
    <contour>
      <point x="320" y="328" type="line"/>
      <point x="530" y="328" type="line"/>
      <point x="530" y="379" type="line"/>
      <point x="320" y="379" type="line"/>
    </contour>
    <contour>
      <point x="530" y="92" type="line"/>
      <point x="530" y="379" type="line"/>
      <point x="474" y="379" type="line"/>
      <point x="474" y="92" type="line"/>
    </contour>
  </outline>
</glyph>
<glyph name="H" format="1">
  <advance width="600"/>
  <unicode hex="0048"/>
  <outline>
    <contour>
      <point x="161" y="0" type="line"/>
      <point x="161" y="700" type="line"/>
      <point x="105" y="700" type="line"/>
      <point x="105" y="0" type="line"/>
    </contour>
    <contour>
      <point x="148" y="338" type="line"/>
      <point x="454" y="338" type="line"/>
      <point x="454" y="390" type="line"/>
      <point x="148" y="390" type="line"/>
    </contour>
    <contour>
      <point x="494" y="0" type="line"/>
      <point x="494" y="700" type="line"/>
      <point x="438" y="700" type="line"/>
      <point x="438" y="0" type="line"/>
    </contour>
  </outline>
</glyph>
<glyph name="I" format="1">
  <advance width="600"/>
  <unicode hex="0049"/>
  <outline>
    <contour>
      <point x="334" y="0" type="line"/>
      <point x="334" y="700" type="line"/>
      <point x="263" y="700" type="line"/>
      <point x="263" y="0" type="line"/>
    </contour>
    <contour>
      <point x="107" y="0" type="line"/>
      <point x="491" y="0" type="line"/>
      <point x="491" y="64" type="line"/>
      <point x="107" y="64" type="line"/>
    </contour>
    <contour>
      <point x="107" y="636" type="line"/>
      <point x="491" y="636" type="line"/>
      <point x="491" y="700" type="line"/>
      <point x="107" y="700" type="line"/>
    </contour>
  </outline>
</glyph>
<glyph name="J" format="1">
  <advance width="600"/>
  <unicode hex="004A"/>
  <outline>
    <contour>
      <point x="391" y="700" type="line"/>
      <point x="391" y="191" type="line"/>
      <point x="448" y="171" type="line"/>
      <point x="448" y="700" type="line"/>
    </contour>
    <contour>
      <point x="100" y="22" type="line"/>
      <point x="136" y="3"/>
      <point x="181" y="-9"/>
      <point x="245" y="-9" type="curve"/>
      <point x="361" y="-9"/>
      <point x="448" y="53"/>
      <point x="448" y="171" type="curve"/>
      <point x="391" y="191" type="line"/>
      <point x="391" y="87"/>
      <point x="338" y="43"/>
      <point x="238" y="43" type="curve"/>
      <point x="201" y="43"/>
      <point x="160" y="52"/>
      <point x="133" y="67" type="curve"/>
    </contour>
    <contour>
      <point x="139" y="649" type="line"/>
      <point x="427" y="649" type="line"/>
      <point x="427" y="700" type="line"/>
      <point x="139" y="700" type="line"/>
    </contour>
  </outline>
</glyph>
<glyph name="K" format="1">
  <advance width="600"/>
  <unicode hex="004B"/>
  <outline>
    <contour>
      <point x="178" y="0" type="line"/>
      <point x="178" y="700" type="line"/>
      <point x="121" y="700" type="line"/>
      <point x="121" y="0" type="line"/>
    </contour>
    <contour>
      <point x="165" y="333" type="line"/>
      <point x="282" y="333" type="line"/>
      <point x="282" y="385" type="line"/>
      <point x="165" y="385" type="line"/>
    </contour>
    <contour>
      <point x="235" y="373" type="line"/>
      <point x="282" y="346" type="line"/>
      <point x="521" y="700" type="line"/>
      <point x="454" y="700" type="line"/>
    </contour>
    <contour>
      <point x="538" y="0" type="line"/>
      <point x="282" y="372" type="line"/>
      <point x="215" y="372" type="line"/>
      <point x="471" y="0" type="line"/>
    </contour>
  </outline>
</glyph>
<glyph name="L" format="1">
  <advance width="600"/>
  <unicode hex="004C"/>
  <outline>
    <contour>
      <point x="201" y="0" type="line"/>
      <point x="201" y="700" type="line"/>
      <point x="145" y="700" type="line"/>
      <point x="145" y="0" type="line"/>
    </contour>
    <contour>
      <point x="189" y="0" type="line"/>
      <point x="535" y="0" type="line"/>
      <point x="535" y="51" type="line"/>
      <point x="189" y="51" type="line"/>
    </contour>
  </outline>
</glyph>
<glyph name="M" format="1">
  <advance width="600"/>
  <unicode hex="004D"/>
  <outline>
    <contour>
      <point x="110" y="0" type="line"/>
      <point x="143" y="700" type="line"/>
      <point x="94" y="700" type="line"/>
      <point x="54" y="0" type="line"/>
    </contour>
    <contour>
      <point x="546" y="0" type="line"/>
      <point x="506" y="700" type="line"/>
      <point x="457" y="700" type="line"/>
      <point x="490" y="0" type="line"/>
    </contour>
    <contour>
      <point x="334" y="276" type="line"/>
      <point x="286" y="47" type="line"/>
      <point x="330" y="47" type="line"/>
      <point x="461" y="573" type="line"/>
      <point x="483" y="700" type="line"/>
      <point x="436" y="700" type="line"/>
    </contour>
    <contour>
      <point x="117" y="700" type="line"/>
      <point x="139" y="574" type="line"/>
      <point x="269" y="47" type="line"/>
      <point x="313" y="47" type="line"/>
      <point x="265" y="276" type="line"/>
      <point x="164" y="700" type="line"/>
    </contour>
  </outline>
</glyph>
<glyph name="N" format="1">
  <advance width="600"/>
  <unicode hex="004E"/>
  <outline>
    <contour>
      <point x="156" y="0" type="line"/>
      <point x="156" y="700" type="line"/>
      <point x="99" y="700" type="line"/>
      <point x="99" y="0" type="line"/>
    </contour>
    <contour>
      <point x="117" y="700" type="line"/>
      <point x="428" y="0" type="line"/>
      <point x="485" y="0" type="line"/>
      <point x="174" y="700" type="line"/>
    </contour>
    <contour>
      <point x="503" y="0" type="line"/>
      <point x="503" y="700" type="line"/>
      <point x="446" y="700" type="line"/>
      <point x="446" y="0" type="line"/>
    </contour>
  </outline>
</glyph>
<glyph name="O" format="1">
  <advance width="600"/>
  <unicode hex="004F"/>
  <outline>
    <contour>
      <point x="425" y="-11"/>
      <point x="533" y="54"/>
      <point x="533" y="348" type="curve" smooth="yes"/>
      <point x="533" y="641"/>
      <point x="425" y="706"/>
      <point x="297" y="706" type="curve" smooth="yes"/>
      <point x="168" y="706"/>
      <point x="60" y="641"/>
      <point x="60" y="348" type="curve" smooth="yes"/>
      <point x="60" y="54"/>
      <point x="168" y="-11"/>
      <point x="297" y="-11" type="curve" smooth="yes"/>
    </contour>
    <contour>
      <point x="198" y="41"/>
      <point x="122" y="96"/>
      <point x="122" y="348" type="curve" smooth="yes"/>
      <point x="122" y="599"/>
      <point x="198" y="654"/>
      <point x="297" y="654" type="curve" smooth="yes"/>
      <point x="395" y="654"/>
      <point x="471" y="599"/>
      <point x="471" y="348" type="curve" smooth="yes"/>
      <point x="471" y="96"/>
      <point x="395" y="41"/>
      <point x="297" y="41" type="curve" smooth="yes"/>
    </contour>
  </outline>
</glyph>
<glyph name="P" format="1">
  <advance width="600"/>
  <unicode hex="0050"/>
  <outline>
    <contour>
      <point x="339" y="649" type="line" smooth="yes"/>
      <point x="404" y="649"/>
      <point x="484" y="644"/>
      <point x="484" y="479" type="curve" smooth="yes"/>
      <point x="484" y="310"/>
      <point x="404" y="297"/>
      <point x="339" y="297" type="curve" smooth="yes"/>
      <point x="179" y="297" type="line"/>
      <point x="179" y="649" type="line"/>
    </contour>
    <contour>
      <point x="410" y="246"/>
      <point x="542" y="264"/>
      <point x="542" y="479" type="curve" smooth="yes"/>
      <point x="542" y="690"/>
      <point x="410" y="700"/>
      <point x="326" y="700" type="curve" smooth="yes"/>
      <point x="123" y="700" type="line"/>
      <point x="123" y="0" type="line"/>
      <point x="179" y="0" type="line"/>
      <point x="179" y="246" type="line"/>
      <point x="326" y="246" type="line" smooth="yes"/>
    </contour>
  </outline>
</glyph>
<glyph name="Q" format="1">
  <advance width="600"/>
  <unicode hex="0051"/>
  <outline>
    <contour>
      <point x="423" y="-11"/>
      <point x="531" y="54"/>
      <point x="531" y="348" type="curve" smooth="yes"/>
      <point x="531" y="641"/>
      <point x="423" y="706"/>
      <point x="295" y="706" type="curve" smooth="yes"/>
      <point x="167" y="706"/>
      <point x="59" y="641"/>
      <point x="59" y="348" type="curve" smooth="yes"/>
      <point x="59" y="54"/>
      <point x="167" y="-11"/>
      <point x="295" y="-11" type="curve" smooth="yes"/>
    </contour>
    <contour>
      <point x="541" y="-22" type="line"/>
      <point x="443" y="76" type="line"/>
      <point x="401" y="34" type="line"/>
      <point x="499" y="-63" type="line"/>
    </contour>
    <contour>
      <point x="196" y="41"/>
      <point x="120" y="96"/>
      <point x="120" y="348" type="curve" smooth="yes"/>
      <point x="120" y="599"/>
      <point x="196" y="654"/>
      <point x="295" y="654" type="curve" smooth="yes"/>
      <point x="394" y="654"/>
      <point x="470" y="599"/>
      <point x="470" y="348" type="curve" smooth="yes"/>
      <point x="470" y="96"/>
      <point x="394" y="41"/>
      <point x="295" y="41" type="curve" smooth="yes"/>
    </contour>
  </outline>
</glyph>
<glyph name="R" format="1">
  <advance width="600"/>
  <unicode hex="0052"/>
  <outline>
    <contour>
      <point x="350" y="649" type="line" smooth="yes"/>
      <point x="415" y="649"/>
      <point x="463" y="618"/>
      <point x="463" y="508" type="curve" smooth="yes"/>
      <point x="463" y="393"/>
      <point x="420" y="360"/>
      <point x="355" y="360" type="curve" smooth="yes"/>
      <point x="167" y="360" type="line"/>
      <point x="167" y="649" type="line"/>
    </contour>
    <contour>
      <point x="424" y="308"/>
      <point x="521" y="340"/>
      <point x="521" y="508" type="curve" smooth="yes"/>
      <point x="521" y="683"/>
      <point x="412" y="700"/>
      <point x="328" y="700" type="curve" smooth="yes"/>
      <point x="110" y="700" type="line"/>
      <point x="110" y="0" type="line"/>
      <point x="167" y="0" type="line"/>
      <point x="167" y="308" type="line"/>
      <point x="340" y="308" type="line" smooth="yes"/>
    </contour>
    <contour>
      <point x="517" y="0" type="line"/>
      <point x="379" y="325" type="line"/>
      <point x="318" y="325" type="line"/>
      <point x="454" y="0" type="line"/>
    </contour>
  </outline>
</glyph>
<glyph name="S" format="1">
  <advance width="600"/>
  <unicode hex="0053"/>
  <outline>
    <contour>
      <point x="210" y="428"/>
      <point x="155" y="475"/>
      <point x="155" y="544" type="curve" smooth="yes"/>
      <point x="155" y="623"/>
      <point x="226" y="654"/>
      <point x="307" y="654" type="curve" smooth="yes"/>
      <point x="389" y="654"/>
      <point x="435" y="623"/>
      <point x="463" y="563" type="curve"/>
      <point x="517" y="591" type="line"/>
      <point x="478" y="669"/>
      <point x="405" y="706"/>
      <point x="307" y="706" type="curve" smooth="yes"/>
      <point x="191" y="706"/>
      <point x="94" y="657"/>
      <point x="94" y="542" type="curve" smooth="yes"/>
      <point x="94" y="435"/>
      <point x="189" y="374"/>
      <point x="293" y="336" type="curve" smooth="yes"/>
      <point x="404" y="295"/>
      <point x="476" y="252"/>
      <point x="476" y="175" type="curve" smooth="yes"/>
      <point x="476" y="88"/>
      <point x="410" y="41"/>
      <point x="301" y="41" type="curve" smooth="yes"/>
      <point x="207" y="41"/>
      <point x="149" y="73"/>
      <point x="117" y="135" type="curve"/>
      <point x="62" y="106" type="line"/>
      <point x="105" y="24"/>
      <point x="188" y="-11"/>
      <point x="301" y="-11" type="curve" smooth="yes"/>
      <point x="437" y="-11"/>
      <point x="536" y="52"/>
      <point x="536" y="177" type="curve" smooth="yes"/>
      <point x="536" y="289"/>
      <point x="432" y="343"/>
      <point x="293" y="396" type="curve" smooth="yes"/>
    </contour>
  </outline>
</glyph>
<glyph name="T" format="1">
  <advance width="600"/>
  <unicode hex="0054"/>
  <outline>
    <contour>
      <point x="327" y="0" type="line"/>
      <point x="327" y="700" type="line"/>
      <point x="270" y="700" type="line"/>
      <point x="270" y="0" type="line"/>
    </contour>
    <contour>
      <point x="69" y="649" type="line"/>
      <point x="529" y="649" type="line"/>
      <point x="529" y="700" type="line"/>
      <point x="69" y="700" type="line"/>
    </contour>
  </outline>
</glyph>
<glyph name="U" format="1">
  <advance width="600"/>
  <unicode hex="0055"/>
  <outline>
    <contour>
      <point x="440" y="-11"/>
      <point x="517" y="52"/>
      <point x="517" y="282" type="curve" smooth="yes"/>
      <point x="517" y="282"/>
      <point x="517" y="700"/>
      <point x="517" y="700" type="curve" smooth="yes"/>
      <point x="460" y="700" type="line" smooth="yes"/>
      <point x="460" y="700"/>
      <point x="460" y="276"/>
      <point x="460" y="276" type="curve" smooth="yes"/>
      <point x="460" y="92"/>
      <point x="407" y="41"/>
      <point x="301" y="41" type="curve" smooth="yes"/>
      <point x="195" y="41"/>
      <point x="141" y="92"/>
      <point x="141" y="276" type="curve" smooth="yes"/>
      <point x="141" y="276"/>
      <point x="141" y="700"/>
      <point x="141" y="700" type="curve" smooth="yes"/>
      <point x="84" y="700" type="line" smooth="yes"/>
      <point x="84" y="700"/>
      <point x="84" y="282"/>
      <point x="84" y="282" type="curve" smooth="yes"/>
      <point x="84" y="52"/>
      <point x="163" y="-11"/>
      <point x="301" y="-11" type="curve" smooth="yes"/>
    </contour>
  </outline>
</glyph>
<glyph name="V" format="1">
  <advance width="600"/>
  <unicode hex="0056"/>
  <outline>
    <contour>
      <point x="290" y="0" type="line"/>
      <point x="133" y="700" type="line"/>
      <point x="73" y="700" type="line"/>
      <point x="230" y="0" type="line"/>
    </contour>
    <contour>
      <point x="533" y="700" type="line"/>
      <point x="473" y="700" type="line"/>
      <point x="316" y="0" type="line"/>
      <point x="376" y="0" type="line"/>
    </contour>
    <contour>
      <point x="364" y="0" type="line"/>
      <point x="364" y="51" type="line"/>
      <point x="242" y="51" type="line"/>
      <point x="242" y="0" type="line"/>
    </contour>
  </outline>
</glyph>
<glyph name="W" format="1">
  <advance width="600"/>
  <unicode hex="0057"/>
  <outline>
    <contour>
      <point x="479" y="0" type="line"/>
      <point x="562" y="700" type="line"/>
      <point x="505" y="700" type="line"/>
      <point x="441" y="101" type="line"/>
      <point x="436" y="0" type="line"/>
    </contour>
    <contour>
      <point x="170" y="0" type="line"/>
      <point x="164" y="101" type="line"/>
      <point x="101" y="700" type="line"/>
      <point x="44" y="700" type="line"/>
      <point x="127" y="0" type="line"/>
    </contour>
    <contour>
      <point x="196" y="0" type="line"/>
      <point x="300" y="546" type="line"/>
      <point x="311" y="654" type="line"/>
      <point x="271" y="654" type="line"/>
      <point x="167" y="113" type="line"/>
      <point x="156" y="0" type="line"/>
    </contour>
    <contour>
      <point x="450" y="0" type="line"/>
      <point x="439" y="113" type="line"/>
      <point x="335" y="654" type="line"/>
      <point x="295" y="654" type="line"/>
      <point x="306" y="546" type="line"/>
      <point x="410" y="0" type="line"/>
    </contour>
  </outline>
</glyph>
<glyph name="X" format="1">
  <advance width="600"/>
  <unicode hex="0058"/>
  <outline>
    <contour>
      <point x="293" y="320" type="line"/>
      <point x="362" y="320" type="line"/>
      <point x="362" y="372" type="line"/>
      <point x="293" y="372" type="line"/>
    </contour>
    <contour>
      <point x="319" y="361" type="line"/>
      <point x="365" y="333" type="line"/>
      <point x="529" y="700" type="line"/>
      <point x="465" y="700" type="line"/>
    </contour>
    <contour>
      <point x="529" y="0" type="line"/>
      <point x="362" y="361" type="line"/>
      <point x="303" y="361" type="line"/>
      <point x="465" y="0" type="line"/>
    </contour>
    <contour>
      <point x="234" y="372" type="line"/>
      <point x="234" y="320" type="line"/>
      <point x="298" y="320" type="line"/>
      <point x="298" y="372" type="line"/>
    </contour>
    <contour>
      <point x="68" y="700" type="line"/>
      <point x="232" y="333" type="line"/>
      <point x="278" y="361" type="line"/>
      <point x="131" y="700" type="line"/>
    </contour>
    <contour>
      <point x="293" y="361" type="line"/>
      <point x="234" y="361" type="line"/>
      <point x="68" y="0" type="line"/>
      <point x="131" y="0" type="line"/>
    </contour>
  </outline>
</glyph>
<glyph name="Y" format="1">
  <advance width="600"/>
  <unicode hex="0059"/>
  <outline>
    <contour>
      <point x="300" y="368" type="line"/>
      <point x="336" y="281" type="line"/>
      <point x="544" y="700" type="line"/>
      <point x="463" y="700" type="line"/>
    </contour>
    <contour>
      <point x="56" y="700" type="line"/>
      <point x="267" y="276" type="line"/>
      <point x="300" y="368" type="line"/>
      <point x="137" y="700" type="line"/>
    </contour>
    <contour>
      <point x="336" y="0" type="line"/>
      <point x="336" y="371" type="line"/>
      <point x="265" y="371" type="line"/>
      <point x="265" y="0" type="line"/>
    </contour>
  </outline>
</glyph>
<glyph name="Z" format="1">
  <advance width="600"/>
  <unicode hex="005A"/>
  <outline>
    <contour>
      <point x="161" y="51" type="line"/>
      <point x="506" y="649" type="line"/>
      <point x="444" y="649" type="line"/>
      <point x="98" y="51" type="line"/>
    </contour>
    <contour>
      <point x="106" y="649" type="line"/>
      <point x="506" y="649" type="line"/>
      <point x="506" y="700" type="line"/>
      <point x="106" y="700" type="line"/>
    </contour>
    <contour>
      <point x="98" y="0" type="line"/>
      <point x="518" y="0" type="line"/>
      <point x="518" y="51" type="line"/>
      <point x="98" y="51" type="line"/>
    </contour>
  </outline>
</glyph>
<glyph name="bracketleft" format="1">
  <advance width="600"/>
  <unicode hex="005B"/>
  <outline>
    <contour>
      <point x="315" y="800" type="line"/>
      <point x="315" y="749" type="line"/>
      <point x="480" y="749" type="line"/>
      <point x="480" y="800" type="line"/>
    </contour>
    <contour>
      <point x="320" y="800" type="line"/>
      <point x="263" y="800" type="line"/>
      <point x="263" y="-200" type="line"/>
      <point x="320" y="-200" type="line"/>
    </contour>
    <contour>
      <point x="315" y="-149" type="line"/>
      <point x="315" y="-200" type="line"/>
      <point x="480" y="-200" type="line"/>
      <point x="480" y="-149" type="line"/>
    </contour>
  </outline>
</glyph>
<glyph name="backslash" format="1">
  <advance width="600"/>
  <unicode hex="005C"/>
  <outline>
    <contour>
      <point x="401" y="-142" type="line"/>
      <point x="451" y="-142" type="line"/>
      <point x="202" y="800" type="line"/>
      <point x="152" y="800" type="line"/>
    </contour>
  </outline>
</glyph>
<glyph name="asciicircum" format="1">
  <advance width="600"/>
  <unicode hex="005E"/>
  <outline>
    <contour>
      <point x="434" y="580" type="line"/>
      <point x="350" y="800" type="line"/>
      <point x="256" y="800" type="line"/>
      <point x="172" y="580" type="line"/>
      <point x="225" y="580" type="line"/>
      <point x="290" y="753" type="line"/>
      <point x="316" y="753" type="line"/>
      <point x="381" y="580" type="line"/>
    </contour>
  </outline>
</glyph>
<glyph name="underscore" format="1">
  <advance width="600"/>
  <unicode hex="005F"/>
  <outline>
    <contour>
      <point x="51" y="-125" type="line"/>
      <point x="549" y="-125" type="line"/>
      <point x="549" y="-73" type="line"/>
      <point x="51" y="-73" type="line"/>
    </contour>
  </outline>
</glyph>
<glyph name="grave" format="1">
  <advance width="600"/>
  <unicode hex="0060"/>
  <outline>
    <contour>
      <point x="295" y="743" type="line"/>
      <point x="211" y="743" type="line"/>
      <point x="346" y="609" type="line"/>
      <point x="401" y="609" type="line"/>
    </contour>
  </outline>
</glyph>
<glyph name="a" format="1">
  <advance width="600"/>
  <unicode hex="0061"/>
  <outline>
    <contour>
      <point x="479" y="377" type="line"/>
      <point x="479" y="468"/>
      <point x="399" y="512"/>
      <point x="296" y="512" type="curve"/>
      <point x="205" y="512"/>
      <point x="147" y="488"/>
      <point x="113" y="454" type="curve"/>
      <point x="151" y="415" type="line"/>
      <point x="176" y="443"/>
      <point x="224" y="460"/>
      <point x="289" y="460" type="curve"/>
      <point x="367" y="460"/>
      <point x="422" y="436"/>
      <point x="422" y="365" type="curve"/>
    </contour>
    <contour>
      <point x="403" y="-11"/>
      <point x="459" y="76"/>
      <point x="459" y="76" type="curve"/>
      <point x="437" y="131" type="line"/>
      <point x="428" y="96"/>
      <point x="361" y="40"/>
      <point x="281" y="40" type="curve"/>
      <point x="190" y="40"/>
      <point x="135" y="67"/>
      <point x="135" y="153" type="curve"/>
      <point x="78" y="153" type="line"/>
      <point x="78" y="41"/>
      <point x="145" y="-11"/>
      <point x="266" y="-11" type="curve"/>
    </contour>
    <contour>
      <point x="135" y="153" type="line"/>
      <point x="135" y="248"/>
      <point x="184" y="265"/>
      <point x="320" y="265" type="curve"/>
      <point x="290" y="316" type="line"/>
      <point x="138" y="316"/>
      <point x="78" y="264"/>
      <point x="78" y="153" type="curve"/>
    </contour>
    <contour>
      <point x="541" y="29" type="line"/>
      <point x="446" y="124" type="line"/>
      <point x="415" y="79" type="line"/>
      <point x="503" y="-8" type="line"/>
    </contour>
    <contour>
      <point x="462" y="265" type="line"/>
      <point x="462" y="316" type="line"/>
      <point x="290" y="316" type="line"/>
      <point x="320" y="265" type="line"/>
    </contour>
    <contour>
      <point x="479" y="294" type="line"/>
      <point x="422" y="294" type="line"/>
      <point x="422" y="100" type="line"/>
      <point x="479" y="84" type="line"/>
    </contour>
    <contour>
      <point x="479" y="209" type="line"/>
      <point x="479" y="377" type="line"/>
      <point x="422" y="365" type="line"/>
      <point x="422" y="209" type="line"/>
    </contour>
  </outline>
</glyph>
<glyph name="b" format="1">
  <advance width="600"/>
  <unicode hex="0062"/>
  <outline>
    <contour>
      <point x="162" y="0" type="line"/>
      <point x="168" y="71" type="line"/>
      <point x="168" y="800" type="line"/>
      <point x="112" y="800" type="line"/>
      <point x="112" y="0" type="line"/>
    </contour>
    <contour>
      <point x="166" y="316" type="line"/>
      <point x="179" y="373"/>
      <point x="236" y="459"/>
      <point x="324" y="459" type="curve" smooth="yes"/>
      <point x="414" y="459"/>
      <point x="459" y="402"/>
      <point x="459" y="251" type="curve"/>
      <point x="516" y="251" type="line"/>
      <point x="516" y="434"/>
      <point x="444" y="511"/>
      <point x="336" y="511" type="curve" smooth="yes"/>
      <point x="210" y="511"/>
      <point x="135" y="408"/>
      <point x="135" y="296" type="curve"/>
    </contour>
    <contour>
      <point x="135" y="102"/>
      <point x="196" y="-11"/>
      <point x="326" y="-11" type="curve" smooth="yes"/>
      <point x="434" y="-11"/>
      <point x="516" y="68"/>
      <point x="516" y="251" type="curve"/>
      <point x="459" y="251" type="line"/>
      <point x="459" y="102"/>
      <point x="405" y="41"/>
      <point x="315" y="41" type="curve" smooth="yes"/>
      <point x="226" y="41"/>
      <point x="174" y="129"/>
      <point x="166" y="196" type="curve"/>
      <point x="135" y="214" type="line"/>
    </contour>
  </outline>
</glyph>
<glyph name="c" format="1">
  <advance width="600"/>
  <unicode hex="0063"/>
  <outline>
    <contour>
      <point x="464" y="122" type="line"/>
      <point x="442" y="79"/>
      <point x="401" y="41"/>
      <point x="338" y="41" type="curve" smooth="yes"/>
      <point x="259" y="41"/>
      <point x="178" y="106"/>
      <point x="178" y="251" type="curve" smooth="yes"/>
      <point x="178" y="398"/>
      <point x="259" y="460"/>
      <point x="338" y="460" type="curve" smooth="yes"/>
      <point x="401" y="460"/>
      <point x="438" y="431"/>
      <point x="465" y="374" type="curve"/>
      <point x="517" y="401" type="line"/>
      <point x="482" y="469"/>
      <point x="426" y="512"/>
      <point x="339" y="512" type="curve" smooth="yes"/>
      <point x="230" y="512"/>
      <point x="118" y="444"/>
      <point x="118" y="251" type="curve" smooth="yes"/>
      <point x="118" y="60"/>
      <point x="230" y="-11"/>
      <point x="339" y="-11" type="curve" smooth="yes"/>
      <point x="426" y="-11"/>
      <point x="488" y="40"/>
      <point x="518" y="94" type="curve"/>
    </contour>
  </outline>
</glyph>
<glyph name="e" format="1">
  <advance width="600"/>
  <unicode hex="0065"/>
  <outline>
    <contour>
      <point x="451" y="123" type="line"/>
      <point x="427" y="83"/>
      <point x="388" y="41"/>
      <point x="306" y="41" type="curve" smooth="yes"/>
      <point x="214" y="41"/>
      <point x="147" y="106"/>
      <point x="147" y="251" type="curve" smooth="yes"/>
      <point x="147" y="400"/>
      <point x="216" y="460"/>
      <point x="307" y="460" type="curve" smooth="yes"/>
      <point x="400" y="460"/>
      <point x="447" y="379"/>
      <point x="449" y="291" type="curve"/>
      <point x="512" y="239" type="line"/>
      <point x="522" y="391"/>
      <point x="449" y="512"/>
      <point x="310" y="512" type="curve" smooth="yes"/>
      <point x="193" y="512"/>
      <point x="87" y="442"/>
      <point x="87" y="251" type="curve" smooth="yes"/>
      <point x="87" y="64"/>
      <point x="193" y="-11"/>
      <point x="307" y="-11" type="curve" smooth="yes"/>
      <point x="406" y="-11"/>
      <point x="471" y="42"/>
      <point x="504" y="94" type="curve"/>
    </contour>
    <contour>
      <point x="143" y="239" type="line"/>
      <point x="512" y="239" type="line"/>
      <point x="466" y="291" type="line"/>
      <point x="143" y="291" type="line"/>
    </contour>
  </outline>
</glyph>
<glyph name="f" format="1">
  <advance width="600"/>
  <unicode hex="0066"/>
  <outline>
    <contour>
      <point x="316" y="0" type="line"/>
      <point x="316" y="606" type="line"/>
      <point x="259" y="626" type="line"/>
      <point x="259" y="0" type="line"/>
    </contour>
    <contour>
      <point x="129" y="449" type="line"/>
      <point x="509" y="449" type="line"/>
      <point x="509" y="500" type="line"/>
      <point x="129" y="500" type="line"/>
    </contour>
    <contour>
      <point x="532" y="796" type="line"/>
      <point x="507" y="803"/>
      <point x="477" y="807"/>
      <point x="442" y="807" type="curve"/>
      <point x="326" y="807"/>
      <point x="259" y="744"/>
      <point x="259" y="626" type="curve"/>
      <point x="316" y="606" type="line"/>
      <point x="316" y="723"/>
      <point x="361" y="755"/>
      <point x="449" y="755" type="curve"/>
      <point x="477" y="755"/>
      <point x="498" y="752"/>
      <point x="514" y="746" type="curve"/>
    </contour>
  </outline>
</glyph>
<glyph name="g" format="1">
  <advance width="600"/>
  <unicode hex="0067"/>
  <outline>
    <contour>
      <point x="397" y="149"/>
      <point x="501" y="188"/>
      <point x="501" y="331" type="curve" smooth="yes"/>
      <point x="501" y="473"/>
      <point x="407" y="512"/>
      <point x="301" y="512" type="curve" smooth="yes"/>
      <point x="194" y="512"/>
      <point x="100" y="473"/>
      <point x="100" y="331" type="curve" smooth="yes"/>
      <point x="100" y="188"/>
      <point x="198" y="149"/>
      <point x="301" y="149" type="curve" smooth="yes"/>
    </contour>
    <contour>
      <point x="212" y="201"/>
      <point x="159" y="232"/>
      <point x="159" y="331" type="curve" smooth="yes"/>
      <point x="159" y="429"/>
      <point x="202" y="461"/>
      <point x="301" y="461" type="curve" smooth="yes"/>
      <point x="399" y="461"/>
      <point x="442" y="432"/>
      <point x="442" y="331" type="curve" smooth="yes"/>
      <point x="442" y="232"/>
      <point x="389" y="201"/>
      <point x="301" y="201" type="curve" smooth="yes"/>
    </contour>
    <contour>
      <point x="240" y="-1" type="line"/>
      <point x="250" y="50" type="line"/>
      <point x="218" y="51" type="line" smooth="yes"/>
      <point x="141" y="52"/>
      <point x="182" y="150"/>
      <point x="228" y="177" type="curve"/>
      <point x="192" y="197" type="line"/>
      <point x="167" y="179"/>
      <point x="123" y="144"/>
      <point x="117" y="92" type="curve" smooth="yes"/>
      <point x="111" y="37"/>
      <point x="147" y="-1"/>
      <point x="222" y="-1" type="curve" smooth="yes"/>
    </contour>
    <contour>
      <point x="87" y="-140"/>
      <point x="159" y="-186"/>
      <point x="307" y="-186" type="curve"/>
      <point x="307" y="-136" type="line"/>
      <point x="207" y="-136"/>
      <point x="159" y="-111"/>
      <point x="150" y="-70" type="curve" smooth="yes"/>
      <point x="142" y="-29"/>
      <point x="174" y="9"/>
      <point x="194" y="23" type="curve"/>
      <point x="160" y="43" type="line"/>
      <point x="140" y="31"/>
      <point x="87" y="-4"/>
      <point x="87" y="-65" type="curve" smooth="yes"/>
    </contour>
    <contour>
      <point x="526" y="4"/>
      <point x="491" y="50"/>
      <point x="403" y="50" type="curve"/>
      <point x="379" y="-1" type="line"/>
      <point x="461" y="-1"/>
      <point x="463" y="-34"/>
      <point x="457" y="-63" type="curve" smooth="yes"/>
      <point x="450" y="-98"/>
      <point x="413" y="-136"/>
      <point x="307" y="-136" type="curve"/>
      <point x="307" y="-186" type="line"/>
      <point x="457" y="-186"/>
      <point x="511" y="-115"/>
      <point x="518" y="-55" type="curve" smooth="yes"/>
    </contour>
    <contour>
      <point x="403" y="50" type="line"/>
      <point x="403" y="50"/>
      <point x="402" y="50"/>
      <point x="402" y="50" type="curve" smooth="yes"/>
      <point x="250" y="50" type="line"/>
      <point x="240" y="-1" type="line"/>
      <point x="379" y="-1" type="line"/>
    </contour>
    <contour>
      <point x="429" y="446" type="line"/>
      <point x="464" y="409" type="line"/>
      <point x="554" y="499" type="line"/>
      <point x="518" y="534" type="line"/>
    </contour>
  </outline>
</glyph>
<glyph name="h" format="1">
  <advance width="600"/>
  <unicode hex="0068"/>
  <outline>
    <contour>
      <point x="156" y="0" type="line"/>
      <point x="156" y="800" type="line"/>
      <point x="100" y="800" type="line"/>
      <point x="100" y="0" type="line"/>
    </contour>
    <contour>
      <point x="155" y="320" type="line"/>
      <point x="162" y="391"/>
      <point x="236" y="459"/>
      <point x="327" y="459" type="curve" smooth="yes"/>
      <point x="423" y="459"/>
      <point x="439" y="400"/>
      <point x="439" y="270" type="curve" smooth="yes"/>
      <point x="439" y="0" type="line"/>
      <point x="495" y="0" type="line"/>
      <point x="495" y="288" type="line" smooth="yes"/>
      <point x="495" y="451"/>
      <point x="450" y="512"/>
      <point x="337" y="512" type="curve" smooth="yes"/>
      <point x="204" y="512"/>
      <point x="120" y="417"/>
      <point x="119" y="312" type="curve"/>
    </contour>
  </outline>
</glyph>
<glyph name="i" format="1">
  <advance width="600"/>
  <unicode hex="0069"/>
  <outline>
    <contour>
      <point x="87" y="449" type="line"/>
      <point x="276" y="449" type="line"/>
      <point x="276" y="500" type="line"/>
      <point x="87" y="500" type="line"/>
    </contour>
    <contour>
      <point x="327" y="38" type="line"/>
      <point x="327" y="500" type="line"/>
      <point x="271" y="500" type="line"/>
      <point x="271" y="13" type="line"/>
    </contour>
    <contour>
      <point x="271" y="0" type="line"/>
      <point x="485" y="0" type="line"/>
      <point x="485" y="51" type="line"/>
      <point x="271" y="51" type="line"/>
    </contour>
    <contour>
      <point x="328" y="644"/>
      <point x="352" y="668"/>
      <point x="352" y="698" type="curve" smooth="yes"/>
      <point x="352" y="728"/>
      <point x="328" y="752"/>
      <point x="298" y="752" type="curve" smooth="yes"/>
      <point x="267" y="752"/>
      <point x="244" y="728"/>
      <point x="244" y="698" type="curve" smooth="yes"/>
      <point x="244" y="668"/>
      <point x="267" y="644"/>
      <point x="298" y="644" type="curve" smooth="yes"/>
    </contour>
  </outline>
</glyph>
<glyph name="j" format="1">
  <advance width="600"/>
  <unicode hex="006A"/>
  <outline>
    <contour>
      <point x="355" y="500" type="line"/>
      <point x="355" y="8" type="line"/>
      <point x="412" y="-12" type="line"/>
      <point x="412" y="500" type="line"/>
    </contour>
    <contour>
      <point x="152" y="-185" type="line"/>
      <point x="175" y="-190"/>
      <point x="200" y="-192"/>
      <point x="229" y="-192" type="curve"/>
      <point x="327" y="-192"/>
      <point x="412" y="-130"/>
      <point x="412" y="-12" type="curve"/>
      <point x="355" y="8" type="line"/>
      <point x="355" y="-78"/>
      <point x="322" y="-140"/>
      <point x="222" y="-140" type="curve"/>
      <point x="201" y="-140"/>
      <point x="181" y="-137"/>
      <point x="166" y="-132" type="curve"/>
    </contour>
    <contour>
      <point x="159" y="449" type="line"/>
      <point x="391" y="449" type="line"/>
      <point x="391" y="500" type="line"/>
      <point x="159" y="500" type="line"/>
    </contour>
    <contour>
      <point x="409" y="644"/>
      <point x="433" y="668"/>
      <point x="433" y="698" type="curve" smooth="yes"/>
      <point x="433" y="728"/>
      <point x="409" y="752"/>
      <point x="379" y="752" type="curve" smooth="yes"/>
      <point x="349" y="752"/>
      <point x="325" y="729"/>
      <point x="325" y="698" type="curve" smooth="yes"/>
      <point x="325" y="668"/>
      <point x="349" y="644"/>
      <point x="379" y="644" type="curve" smooth="yes"/>
    </contour>
  </outline>
</glyph>
<glyph name="k" format="1">
  <advance width="600"/>
  <unicode hex="006B"/>
  <outline>
    <contour>
      <point x="193" y="0" type="line"/>
      <point x="193" y="800" type="line"/>
      <point x="137" y="800" type="line"/>
      <point x="137" y="0" type="line"/>
    </contour>
    <contour>
      <point x="174" y="233" type="line"/>
      <point x="278" y="233" type="line"/>
      <point x="278" y="285" type="line"/>
      <point x="174" y="285" type="line"/>
    </contour>
    <contour>
      <point x="232" y="272" type="line"/>
      <point x="280" y="246" type="line"/>
      <point x="514" y="500" type="line"/>
      <point x="444" y="500" type="line"/>
    </contour>
    <contour>
      <point x="530" y="0" type="line"/>
      <point x="284" y="273" type="line"/>
      <point x="214" y="273" type="line"/>
      <point x="460" y="0" type="line"/>
    </contour>
  </outline>
</glyph>
<glyph name="l" format="1">
  <advance width="600"/>
  <unicode hex="006C"/>
  <outline>
    <contour>
      <point x="312" y="56" type="line"/>
      <point x="312" y="800" type="line"/>
      <point x="240" y="800" type="line"/>
      <point x="240" y="41" type="line"/>
    </contour>
    <contour>
      <point x="463" y="0" type="line"/>
      <point x="463" y="64" type="line"/>
      <point x="240" y="64" type="line"/>
      <point x="240" y="0" type="line"/>
    </contour>
    <contour>
      <point x="245" y="736" type="line"/>
      <point x="245" y="800" type="line"/>
      <point x="94" y="800" type="line"/>
      <point x="94" y="736" type="line"/>
    </contour>
  </outline>
</glyph>
<glyph name="m" format="1">
  <advance width="600"/>
  <unicode hex="006D"/>
  <outline>
    <contour>
      <point x="560" y="0" type="line"/>
      <point x="560" y="328" type="line" smooth="yes"/>
      <point x="560" y="479"/>
      <point x="524" y="511"/>
      <point x="454" y="511" type="curve" smooth="yes"/>
      <point x="366" y="511"/>
      <point x="301" y="424"/>
      <point x="301" y="312" type="curve"/>
      <point x="334" y="352" type="line"/>
      <point x="341" y="391"/>
      <point x="384" y="459"/>
      <point x="440" y="459" type="curve" smooth="yes"/>
      <point x="492" y="459"/>
      <point x="504" y="432"/>
      <point x="504" y="307" type="curve" smooth="yes"/>
      <point x="504" y="0" type="line"/>
    </contour>
    <contour>
      <point x="115" y="0" type="line"/>
      <point x="115" y="402" type="line"/>
      <point x="115" y="402"/>
      <point x="107" y="500"/>
      <point x="107" y="500" type="curve"/>
      <point x="59" y="500" type="line"/>
      <point x="59" y="500"/>
      <point x="59" y="436"/>
      <point x="59" y="345" type="curve"/>
      <point x="59" y="0" type="line"/>
    </contour>
    <contour>
      <point x="334" y="0" type="line"/>
      <point x="334" y="352" type="line" smooth="yes"/>
      <point x="334" y="352"/>
      <point x="333" y="364"/>
      <point x="333" y="389" type="curve" smooth="yes"/>
      <point x="333" y="475"/>
      <point x="298" y="511"/>
      <point x="232" y="511" type="curve" smooth="yes"/>
      <point x="148" y="511"/>
      <point x="81" y="424"/>
      <point x="81" y="312" type="curve"/>
      <point x="115" y="352" type="line"/>
      <point x="122" y="390"/>
      <point x="165" y="459"/>
      <point x="220" y="459" type="curve" smooth="yes"/>
      <point x="274" y="459"/>
      <point x="280" y="432"/>
      <point x="280" y="307" type="curve" smooth="yes"/>
      <point x="280" y="0" type="line"/>
    </contour>
  </outline>
</glyph>
<glyph name="n" format="1">
  <advance width="600"/>
  <unicode hex="006E"/>
  <outline>
    <contour>
      <point x="175" y="331" type="line"/>
      <point x="182" y="383"/>
      <point x="258" y="459"/>
      <point x="340" y="459" type="curve" smooth="yes"/>
      <point x="420" y="459"/>
      <point x="449" y="425"/>
      <point x="449" y="294" type="curve" smooth="yes"/>
      <point x="449" y="0" type="line"/>
      <point x="505" y="0" type="line"/>
      <point x="505" y="313" type="line" smooth="yes"/>
      <point x="505" y="451"/>
      <point x="463" y="511"/>
      <point x="353" y="511" type="curve" smooth="yes"/>
      <point x="232" y="511"/>
      <point x="140" y="418"/>
      <point x="140" y="312" type="curve"/>
    </contour>
    <contour>
      <point x="119" y="500" type="line"/>
      <point x="119" y="500"/>
      <point x="119" y="436"/>
      <point x="119" y="345" type="curve"/>
      <point x="119" y="0" type="line"/>
      <point x="175" y="0" type="line"/>
      <point x="175" y="402" type="line"/>
      <point x="175" y="402"/>
      <point x="167" y="500"/>
      <point x="167" y="500" type="curve"/>
    </contour>
  </outline>
</glyph>
<glyph name="o" format="1">
  <advance width="600"/>
  <unicode hex="006F"/>
  <outline>
    <contour>
      <point x="413" y="-11"/>
      <point x="509" y="58"/>
      <point x="509" y="251" type="curve" smooth="yes"/>
      <point x="509" y="443"/>
      <point x="413" y="512"/>
      <point x="303" y="512" type="curve" smooth="yes"/>
      <point x="192" y="512"/>
      <point x="96" y="443"/>
      <point x="96" y="251" type="curve" smooth="yes"/>
      <point x="96" y="58"/>
      <point x="192" y="-11"/>
      <point x="303" y="-11" type="curve" smooth="yes"/>
    </contour>
    <contour>
      <point x="228" y="41"/>
      <point x="156" y="89"/>
      <point x="156" y="251" type="curve" smooth="yes"/>
      <point x="156" y="410"/>
      <point x="228" y="460"/>
      <point x="303" y="460" type="curve" smooth="yes"/>
      <point x="377" y="460"/>
      <point x="449" y="410"/>
      <point x="449" y="251" type="curve" smooth="yes"/>
      <point x="449" y="89"/>
      <point x="377" y="41"/>
      <point x="303" y="41" type="curve" smooth="yes"/>
    </contour>
  </outline>
</glyph>
<glyph name="p" format="1">
  <advance width="600"/>
  <unicode hex="0070"/>
  <outline>
    <contour>
      <point x="112" y="-200" type="line"/>
      <point x="168" y="-200" type="line"/>
      <point x="168" y="429" type="line"/>
      <point x="160" y="500" type="line"/>
      <point x="112" y="500" type="line"/>
    </contour>
    <contour>
      <point x="131" y="96"/>
      <point x="193" y="-11"/>
      <point x="331" y="-11" type="curve" smooth="yes"/>
      <point x="451" y="-11"/>
      <point x="524" y="66"/>
      <point x="524" y="249" type="curve"/>
      <point x="467" y="249" type="line"/>
      <point x="467" y="108"/>
      <point x="421" y="41"/>
      <point x="323" y="41" type="curve" smooth="yes"/>
      <point x="216" y="41"/>
      <point x="170" y="135"/>
      <point x="166" y="178" type="curve"/>
      <point x="131" y="208" type="line"/>
    </contour>
    <contour>
      <point x="166" y="310" type="line"/>
      <point x="169" y="353"/>
      <point x="226" y="460"/>
      <point x="333" y="460" type="curve" smooth="yes"/>
      <point x="431" y="460"/>
      <point x="467" y="390"/>
      <point x="467" y="249" type="curve"/>
      <point x="524" y="249" type="line"/>
      <point x="524" y="432"/>
      <point x="461" y="512"/>
      <point x="341" y="512" type="curve" smooth="yes"/>
      <point x="211" y="512"/>
      <point x="131" y="394"/>
      <point x="131" y="290" type="curve"/>
    </contour>
  </outline>
</glyph>
<glyph name="r" format="1">
  <advance width="600"/>
  <unicode hex="0072"/>
  <outline>
    <contour>
      <point x="309" y="326" type="line"/>
      <point x="328" y="393"/>
      <point x="389" y="458"/>
      <point x="477" y="458" type="curve" smooth="yes"/>
      <point x="522" y="458"/>
      <point x="542" y="446"/>
      <point x="544" y="445" type="curve"/>
      <point x="563" y="497" type="line"/>
      <point x="551" y="503"/>
      <point x="524" y="512"/>
      <point x="489" y="512" type="curve" smooth="yes"/>
      <point x="362" y="512"/>
      <point x="276" y="417"/>
      <point x="276" y="305" type="curve"/>
    </contour>
    <contour>
      <point x="459" y="0" type="line"/>
      <point x="459" y="51" type="line"/>
      <point x="103" y="51" type="line"/>
      <point x="103" y="0" type="line"/>
    </contour>
    <contour>
      <point x="310" y="0" type="line"/>
      <point x="310" y="402" type="line"/>
      <point x="302" y="500" type="line"/>
      <point x="253" y="500" type="line"/>
      <point x="253" y="345" type="line"/>
      <point x="253" y="0" type="line"/>
    </contour>
    <contour>
      <point x="280" y="449" type="line"/>
      <point x="280" y="500" type="line"/>
      <point x="103" y="500" type="line"/>
      <point x="103" y="449" type="line"/>
    </contour>
  </outline>
</glyph>
<glyph name="s" format="1">
  <advance width="600"/>
  <unicode hex="0073"/>
  <outline>
    <contour>
      <point x="392" y="-11"/>
      <point x="502" y="36"/>
      <point x="502" y="140" type="curve" smooth="yes"/>
      <point x="502" y="252"/>
      <point x="340" y="276"/>
      <point x="294" y="288" type="curve" smooth="yes"/>
      <point x="260" y="298"/>
      <point x="167" y="314"/>
      <point x="167" y="378" type="curve" smooth="yes"/>
      <point x="167" y="445"/>
      <point x="258" y="460"/>
      <point x="301" y="460" type="curve" smooth="yes"/>
      <point x="345" y="460"/>
      <point x="405" y="446"/>
      <point x="431" y="404" type="curve"/>
      <point x="481" y="437" type="line"/>
      <point x="453" y="484"/>
      <point x="377" y="512"/>
      <point x="301" y="512" type="curve" smooth="yes"/>
      <point x="216" y="512"/>
      <point x="106" y="473"/>
      <point x="106" y="379" type="curve" smooth="yes"/>
      <point x="106" y="277"/>
      <point x="235" y="247"/>
      <point x="283" y="234" type="curve" smooth="yes"/>
      <point x="319" y="225"/>
      <point x="441" y="209"/>
      <point x="441" y="139" type="curve" smooth="yes"/>
      <point x="441" y="66"/>
      <point x="360" y="41"/>
      <point x="294" y="41" type="curve" smooth="yes"/>
      <point x="231" y="41"/>
      <point x="163" y="61"/>
      <point x="137" y="96" type="curve"/>
      <point x="86" y="60" type="line"/>
      <point x="125" y="13"/>
      <point x="211" y="-11"/>
      <point x="292" y="-11" type="curve" smooth="yes"/>
    </contour>
  </outline>
</glyph>
<glyph name="t" format="1">
  <advance width="600"/>
  <unicode hex="0074"/>
  <outline>
    <contour>
      <point x="297" y="114" type="line"/>
      <point x="297" y="680" type="line"/>
      <point x="240" y="680" type="line"/>
      <point x="240" y="100" type="line"/>
    </contour>
    <contour>
      <point x="414" y="-11"/>
      <point x="443" y="-1"/>
      <point x="451" y="0" type="curve"/>
      <point x="451" y="50" type="line"/>
      <point x="442" y="48"/>
      <point x="397" y="38"/>
      <point x="363" y="38" type="curve"/>
      <point x="329" y="38"/>
      <point x="297" y="51"/>
      <point x="297" y="114" type="curve"/>
      <point x="240" y="100" type="line"/>
      <point x="240" y="28"/>
      <point x="286" y="-11"/>
      <point x="353" y="-11" type="curve"/>
    </contour>
    <contour>
      <point x="488" y="449" type="line"/>
      <point x="488" y="500" type="line"/>
      <point x="108" y="500" type="line"/>
      <point x="108" y="449" type="line"/>
    </contour>
  </outline>
</glyph>
<glyph name="u" format="1">
  <advance width="600"/>
  <unicode hex="0075"/>
  <outline>
    <contour>
      <point x="445" y="151" type="line"/>
      <point x="432" y="118"/>
      <point x="384" y="42"/>
      <point x="283" y="42" type="curve" smooth="yes"/>
      <point x="179" y="42"/>
      <point x="165" y="105"/>
      <point x="165" y="224" type="curve" smooth="yes"/>
      <point x="165" y="501" type="line"/>
      <point x="109" y="501" type="line"/>
      <point x="109" y="201" type="line" smooth="yes"/>
      <point x="109" y="38"/>
      <point x="174" y="-10"/>
      <point x="271" y="-10" type="curve" smooth="yes"/>
      <point x="398" y="-10"/>
      <point x="481" y="77"/>
      <point x="481" y="189" type="curve"/>
    </contour>
    <contour>
      <point x="502" y="0" type="line" smooth="yes"/>
      <point x="502" y="0"/>
      <point x="501" y="101"/>
      <point x="501" y="101" type="curve"/>
      <point x="501" y="501" type="line"/>
      <point x="445" y="501" type="line"/>
      <point x="445" y="99" type="line"/>
      <point x="445" y="99"/>
      <point x="448" y="0"/>
      <point x="448" y="0" type="curve"/>
    </contour>
  </outline>
</glyph>
<glyph name="v" format="1">
  <advance width="600"/>
  <unicode hex="0076"/>
  <outline>
    <contour>
      <point x="116" y="500" type="line"/>
      <point x="238" y="0" type="line"/>
      <point x="293" y="0" type="line"/>
      <point x="177" y="500" type="line"/>
    </contour>
    <contour>
      <point x="427" y="500" type="line"/>
      <point x="311" y="0" type="line"/>
      <point x="366" y="0" type="line"/>
      <point x="488" y="500" type="line"/>
    </contour>
    <contour>
      <point x="354" y="0" type="line"/>
      <point x="354" y="51" type="line"/>
      <point x="250" y="51" type="line"/>
      <point x="250" y="0" type="line"/>
    </contour>
  </outline>
</glyph>
<glyph name="w" format="1">
  <advance width="600"/>
  <unicode hex="0077"/>
  <outline>
    <contour>
      <point x="126" y="0" type="line"/>
      <point x="176" y="0" type="line"/>
      <point x="118" y="500" type="line"/>
      <point x="63" y="500" type="line"/>
    </contour>
    <contour>
      <point x="420" y="0" type="line"/>
      <point x="470" y="0" type="line"/>
      <point x="533" y="500" type="line"/>
      <point x="478" y="500" type="line"/>
    </contour>
    <contour>
      <point x="321" y="500" type="line"/>
      <point x="269" y="500" type="line"/>
      <point x="156" y="0" type="line"/>
      <point x="202" y="0" type="line"/>
    </contour>
    <contour>
      <point x="440" y="0" type="line"/>
      <point x="327" y="500" type="line"/>
      <point x="275" y="500" type="line"/>
      <point x="394" y="0" type="line"/>
    </contour>
  </outline>
</glyph>
<glyph name="x" format="1">
  <advance width="600"/>
  <unicode hex="0078"/>
  <outline>
    <contour>
      <point x="308" y="267" type="line"/>
      <point x="353" y="240" type="line"/>
      <point x="520" y="500" type="line"/>
      <point x="454" y="500" type="line"/>
    </contour>
    <contour>
      <point x="274" y="227" type="line"/>
      <point x="345" y="227" type="line"/>
      <point x="345" y="279" type="line"/>
      <point x="274" y="279" type="line"/>
    </contour>
    <contour>
      <point x="520" y="0" type="line"/>
      <point x="349" y="273" type="line"/>
      <point x="293" y="264" type="line"/>
      <point x="454" y="0" type="line"/>
    </contour>
    <contour>
      <point x="245" y="279" type="line"/>
      <point x="245" y="227" type="line"/>
      <point x="316" y="227" type="line"/>
      <point x="316" y="279" type="line"/>
    </contour>
    <contour>
      <point x="70" y="500" type="line"/>
      <point x="237" y="240" type="line"/>
      <point x="282" y="267" type="line"/>
      <point x="136" y="500" type="line"/>
    </contour>
    <contour>
      <point x="297" y="264" type="line"/>
      <point x="241" y="273" type="line"/>
      <point x="70" y="0" type="line"/>
      <point x="136" y="0" type="line"/>
    </contour>
  </outline>
</glyph>
<glyph name="y" format="1">
  <advance width="600"/>
  <unicode hex="0079"/>
  <outline>
    <contour>
      <point x="90" y="500" type="line"/>
      <point x="271" y="0" type="line"/>
      <point x="310" y="40" type="line"/>
      <point x="156" y="500" type="line"/>
    </contour>
    <contour>
      <point x="429" y="500" type="line"/>
      <point x="281" y="38" type="line"/>
      <point x="323" y="0" type="line"/>
      <point x="495" y="500" type="line"/>
    </contour>
    <contour>
      <point x="91" y="-187" type="line"/>
      <point x="97" y="-188"/>
      <point x="117" y="-192"/>
      <point x="134" y="-192" type="curve"/>
      <point x="213" y="-192"/>
      <point x="279" y="-118"/>
      <point x="323" y="0" type="curve"/>
      <point x="294" y="40" type="line"/>
      <point x="273" y="16" type="line"/>
      <point x="236" y="-80"/>
      <point x="195" y="-140"/>
      <point x="131" y="-140" type="curve"/>
      <point x="119" y="-140"/>
      <point x="109" y="-137"/>
      <point x="108" y="-137" type="curve"/>
    </contour>
  </outline>
</glyph>
<glyph name="z" format="1">
  <advance width="600"/>
  <unicode hex="007A"/>
  <outline>
    <contour>
      <point x="187" y="51" type="line"/>
      <point x="494" y="449" type="line"/>
      <point x="429" y="449" type="line"/>
      <point x="119" y="51" type="line"/>
    </contour>
    <contour>
      <point x="127" y="449" type="line"/>
      <point x="494" y="449" type="line"/>
      <point x="494" y="500" type="line"/>
      <point x="127" y="500" type="line"/>
    </contour>
    <contour>
      <point x="119" y="0" type="line"/>
      <point x="500" y="0" type="line"/>
      <point x="500" y="51" type="line"/>
      <point x="119" y="51" type="line"/>
    </contour>
  </outline>
</glyph>
<glyph name="braceleft" format="1">
  <advance width="600"/>
  <unicode hex="007B"/>
  <outline>
    <contour>
      <point x="211" y="315" type="line" smooth="yes"/>
      <point x="247" y="315"/>
      <point x="326" y="324"/>
      <point x="326" y="442" type="curve" smooth="yes"/>
      <point x="326" y="612" type="line" smooth="yes"/>
      <point x="326" y="717"/>
      <point x="372" y="755"/>
      <point x="459" y="755" type="curve" smooth="yes"/>
      <point x="467" y="755" type="line"/>
      <point x="467" y="807" type="line"/>
      <point x="452" y="807" type="line" smooth="yes"/>
      <point x="336" y="807"/>
      <point x="269" y="743"/>
      <point x="269" y="625" type="curve" smooth="yes"/>
      <point x="269" y="476" type="line" smooth="yes"/>
      <point x="269" y="390"/>
      <point x="251" y="343"/>
      <point x="186" y="343" type="curve" smooth="yes"/>
      <point x="182" y="343" type="line"/>
      <point x="182" y="315" type="line"/>
    </contour>
    <contour>
      <point x="182" y="290" type="line"/>
      <point x="186" y="290" type="line" smooth="yes"/>
      <point x="251" y="290"/>
      <point x="269" y="243"/>
      <point x="269" y="157" type="curve" smooth="yes"/>
      <point x="269" y="8" type="line" smooth="yes"/>
      <point x="269" y="-110"/>
      <point x="336" y="-174"/>
      <point x="452" y="-174" type="curve" smooth="yes"/>
      <point x="467" y="-174" type="line"/>
      <point x="467" y="-122" type="line"/>
      <point x="459" y="-122" type="line" smooth="yes"/>
      <point x="372" y="-122"/>
      <point x="326" y="-84"/>
      <point x="326" y="21" type="curve" smooth="yes"/>
      <point x="326" y="191" type="line" smooth="yes"/>
      <point x="326" y="309"/>
      <point x="247" y="318"/>
      <point x="211" y="318" type="curve" smooth="yes"/>
      <point x="182" y="318" type="line"/>
    </contour>
  </outline>
</glyph>
<glyph name="bar" format="1">
  <advance width="600"/>
  <unicode hex="007C"/>
  <outline>
    <contour>
      <point x="272" y="-130" type="line"/>
      <point x="323" y="-130" type="line"/>
      <point x="323" y="800" type="line"/>
      <point x="272" y="800" type="line"/>
    </contour>
  </outline>
</glyph>
<glyph name="cent" format="1">
  <advance width="600"/>
  <unicode hex="00A2"/>
  <outline>
    <contour>
      <point x="386" y="85"/>
      <point x="455" y="116"/>
      <point x="501" y="190" type="curve"/>
      <point x="446" y="218" type="line"/>
      <point x="420" y="169"/>
      <point x="372" y="137"/>
      <point x="304" y="137" type="curve" smooth="yes"/>
      <point x="211" y="137"/>
      <point x="135" y="202"/>
      <point x="135" y="347" type="curve" smooth="yes"/>
      <point x="135" y="494"/>
      <point x="211" y="556"/>
      <point x="304" y="556" type="curve" smooth="yes"/>
      <point x="375" y="556"/>
      <point x="415" y="521"/>
      <point x="444" y="465" type="curve"/>
      <point x="498" y="494" type="line"/>
      <point x="451" y="577"/>
      <point x="385" y="608"/>
      <point x="307" y="608" type="curve" smooth="yes"/>
      <point x="182" y="608"/>
      <point x="74" y="540"/>
      <point x="74" y="347" type="curve" smooth="yes"/>
      <point x="74" y="156"/>
      <point x="182" y="85"/>
      <point x="307" y="85" type="curve" smooth="yes"/>
    </contour>
    <contour>
      <point x="323" y="0" type="line"/>
      <point x="323" y="114" type="line"/>
      <point x="273" y="114" type="line"/>
      <point x="273" y="0" type="line"/>
    </contour>
    <contour>
      <point x="323" y="580" type="line"/>
      <point x="323" y="700" type="line"/>
      <point x="273" y="700" type="line"/>
      <point x="273" y="580" type="line"/>
    </contour>
  </outline>
</glyph>
<glyph name="sterling" format="1">
  <advance width="600"/>
  <unicode hex="00A3"/>
  <outline>
    <contour>
      <point x="216" y="65"/>
      <point x="262" y="181"/>
      <point x="247" y="291" type="curve" smooth="yes"/>
      <point x="238" y="353"/>
      <point x="201" y="440"/>
      <point x="201" y="505" type="curve" smooth="yes"/>
      <point x="201" y="621"/>
      <point x="278" y="655"/>
      <point x="348" y="655" type="curve" smooth="yes"/>
      <point x="421" y="655"/>
      <point x="456" y="621"/>
      <point x="478" y="583" type="curve"/>
      <point x="524" y="611" type="line"/>
      <point x="496" y="664"/>
      <point x="442" y="706"/>
      <point x="348" y="706" type="curve" smooth="yes"/>
      <point x="222" y="706"/>
      <point x="141" y="626"/>
      <point x="141" y="505" type="curve" smooth="yes"/>
      <point x="141" y="426"/>
      <point x="183" y="345"/>
      <point x="193" y="284" type="curve" smooth="yes"/>
      <point x="208" y="192"/>
      <point x="161" y="83"/>
      <point x="113" y="45" type="curve"/>
      <point x="149" y="26" type="line"/>
    </contour>
    <contour>
      <point x="145" y="-6"/>
      <point x="212" y="14"/>
      <point x="261" y="13" type="curve" smooth="yes"/>
      <point x="315" y="12"/>
      <point x="357" y="-11"/>
      <point x="423" y="-13" type="curve" smooth="yes"/>
      <point x="481" y="-15"/>
      <point x="518" y="-1"/>
      <point x="518" y="-1" type="curve"/>
      <point x="502" y="50" type="line"/>
      <point x="502" y="50"/>
      <point x="472" y="33"/>
      <point x="423" y="36" type="curve" smooth="yes"/>
      <point x="367" y="38"/>
      <point x="346" y="57"/>
      <point x="281" y="59" type="curve" smooth="yes"/>
      <point x="223" y="61"/>
      <point x="177" y="46"/>
      <point x="152" y="32" type="curve"/>
      <point x="152" y="32"/>
      <point x="116" y="45"/>
      <point x="113" y="45" type="curve"/>
      <point x="134" y="-9" type="line"/>
    </contour>
    <contour>
      <point x="439" y="322" type="line"/>
      <point x="439" y="374" type="line"/>
      <point x="62" y="374" type="line"/>
      <point x="62" y="322" type="line"/>
    </contour>
  </outline>
</glyph>
<glyph name="currency" format="1">
  <advance width="600"/>
  <unicode hex="00A4"/>
  <outline>
    <contour>
      <point x="408" y="169"/>
      <point x="494" y="229"/>
      <point x="494" y="370" type="curve" smooth="yes"/>
      <point x="494" y="511"/>
      <point x="408" y="570"/>
      <point x="303" y="570" type="curve" smooth="yes"/>
      <point x="197" y="570"/>
      <point x="111" y="511"/>
      <point x="111" y="370" type="curve" smooth="yes"/>
      <point x="111" y="229"/>
      <point x="197" y="169"/>
      <point x="303" y="169" type="curve" smooth="yes"/>
    </contour>
    <contour>
      <point x="182" y="212" type="line"/>
      <point x="146" y="247" type="line"/>
      <point x="70" y="173" type="line"/>
      <point x="105" y="136" type="line"/>
    </contour>
    <contour>
      <point x="234" y="219"/>
      <point x="167" y="254"/>
      <point x="167" y="370" type="curve" smooth="yes"/>
      <point x="167" y="485"/>
      <point x="234" y="520"/>
      <point x="303" y="520" type="curve" smooth="yes"/>
      <point x="371" y="520"/>
      <point x="438" y="485"/>
      <point x="438" y="370" type="curve" smooth="yes"/>
      <point x="438" y="254"/>
      <point x="371" y="219"/>
      <point x="303" y="219" type="curve" smooth="yes"/>
    </contour>
    <contour>
      <point x="537" y="173" type="line"/>
      <point x="461" y="248" type="line"/>
      <point x="425" y="213" type="line"/>
      <point x="502" y="136" type="line"/>
    </contour>
    <contour>
      <point x="182" y="529" type="line"/>
      <point x="105" y="606" type="line"/>
      <point x="70" y="569" type="line"/>
      <point x="146" y="494" type="line"/>
    </contour>
    <contour>
      <point x="537" y="568" type="line"/>
      <point x="502" y="605" type="line"/>
      <point x="425" y="529" type="line"/>
      <point x="461" y="493" type="line"/>
    </contour>
  </outline>
</glyph>
<glyph name="yen" format="1">
  <advance width="600"/>
  <unicode hex="00A5"/>
  <outline>
    <contour>
      <point x="300" y="369" type="line"/>
      <point x="329" y="297" type="line"/>
      <point x="497" y="700" type="line"/>
      <point x="433" y="700" type="line"/>
    </contour>
    <contour>
      <point x="103" y="700" type="line"/>
      <point x="274" y="292" type="line"/>
      <point x="300" y="369" type="line"/>
      <point x="167" y="700" type="line"/>
    </contour>
    <contour>
      <point x="329" y="0" type="line"/>
      <point x="329" y="369" type="line"/>
      <point x="272" y="369" type="line"/>
      <point x="272" y="0" type="line"/>
    </contour>
    <contour>
      <point x="128" y="280" type="line"/>
      <point x="473" y="280" type="line"/>
      <point x="473" y="331" type="line"/>
      <point x="128" y="331" type="line"/>
    </contour>
    <contour>
      <point x="128" y="146" type="line"/>
      <point x="473" y="146" type="line"/>
      <point x="473" y="197" type="line"/>
      <point x="128" y="197" type="line"/>
    </contour>
  </outline>
</glyph>
<glyph name="brokenbar" format="1">
  <advance width="600"/>
  <unicode hex="00A6"/>
  <outline>
    <contour>
      <point x="271" y="213" type="line"/>
      <point x="271" y="-130" type="line"/>
      <point x="324" y="-130" type="line"/>
      <point x="324" y="213" type="line"/>
    </contour>
    <contour>
      <point x="324" y="453" type="line"/>
      <point x="324" y="800" type="line"/>
      <point x="271" y="800" type="line"/>
      <point x="271" y="453" type="line"/>
    </contour>
  </outline>
</glyph>
<glyph name="section" format="1">
  <advance width="600"/>
  <unicode hex="00A7"/>
  <outline>
    <contour>
      <point x="290" y="444" type="line"/>
      <point x="207" y="432"/>
      <point x="108" y="402"/>
      <point x="108" y="314" type="curve" smooth="yes"/>
      <point x="108" y="207"/>
      <point x="221" y="181"/>
      <point x="291" y="159" type="curve" smooth="yes"/>
      <point x="351" y="140"/>
      <point x="448" y="112"/>
      <point x="448" y="44" type="curve" smooth="yes"/>
      <point x="448" y="-33"/>
      <point x="373" y="-61"/>
      <point x="291" y="-61" type="curve" smooth="yes"/>
      <point x="208" y="-61"/>
      <point x="146" y="-33"/>
      <point x="125" y="13" type="curve"/>
      <point x="76" y="-13" type="line"/>
      <point x="103" y="-73"/>
      <point x="186" y="-109"/>
      <point x="291" y="-109" type="curve" smooth="yes"/>
      <point x="405" y="-109"/>
      <point x="503" y="-65"/>
      <point x="503" y="45" type="curve" smooth="yes"/>
      <point x="503" y="160"/>
      <point x="355" y="190"/>
      <point x="297" y="207" type="curve" smooth="yes"/>
      <point x="244" y="224"/>
      <point x="164" y="248"/>
      <point x="164" y="315" type="curve" smooth="yes"/>
      <point x="164" y="382"/>
      <point x="262" y="406"/>
      <point x="314" y="406" type="curve" smooth="yes"/>
      <point x="323" y="406"/>
      <point x="323" y="406"/>
      <point x="332" y="405" type="curve"/>
    </contour>
    <contour>
      <point x="353" y="149" type="line"/>
      <point x="398" y="159"/>
      <point x="503" y="191"/>
      <point x="503" y="288" type="curve" smooth="yes"/>
      <point x="503" y="402"/>
      <point x="354" y="434"/>
      <point x="297" y="453" type="curve" smooth="yes"/>
      <point x="250" y="468"/>
      <point x="172" y="493"/>
      <point x="172" y="562" type="curve" smooth="yes"/>
      <point x="172" y="636"/>
      <point x="250" y="658"/>
      <point x="310" y="658" type="curve" smooth="yes"/>
      <point x="383" y="658"/>
      <point x="435" y="634"/>
      <point x="456" y="585" type="curve"/>
      <point x="507" y="609" type="line"/>
      <point x="479" y="670"/>
      <point x="404" y="706"/>
      <point x="310" y="706" type="curve" smooth="yes"/>
      <point x="216" y="706"/>
      <point x="118" y="664"/>
      <point x="118" y="561" type="curve" smooth="yes"/>
      <point x="118" y="457"/>
      <point x="232" y="421"/>
      <point x="291" y="403" type="curve" smooth="yes"/>
      <point x="350" y="386"/>
      <point x="449" y="356"/>
      <point x="449" y="288" type="curve" smooth="yes"/>
      <point x="449" y="224"/>
      <point x="367" y="187"/>
      <point x="306" y="180" type="curve"/>
    </contour>
  </outline>
</glyph>
<glyph name="dieresis" format="1">
  <advance width="600"/>
  <unicode hex="00A8"/>
  <outline>
    <contour>
      <point x="233" y="647"/>
      <point x="256" y="670"/>
      <point x="256" y="699" type="curve" smooth="yes"/>
      <point x="256" y="728"/>
      <point x="233" y="752"/>
      <point x="204" y="752" type="curve" smooth="yes"/>
      <point x="175" y="752"/>
      <point x="152" y="728"/>
      <point x="152" y="699" type="curve" smooth="yes"/>
      <point x="152" y="670"/>
      <point x="175" y="647"/>
      <point x="204" y="647" type="curve" smooth="yes"/>
    </contour>
    <contour>
      <point x="430" y="647"/>
      <point x="453" y="670"/>
      <point x="453" y="699" type="curve" smooth="yes"/>
      <point x="453" y="728"/>
      <point x="430" y="752"/>
      <point x="401" y="752" type="curve" smooth="yes"/>
      <point x="372" y="752"/>
      <point x="349" y="728"/>
      <point x="349" y="699" type="curve" smooth="yes"/>
      <point x="349" y="670"/>
      <point x="372" y="647"/>
      <point x="401" y="647" type="curve" smooth="yes"/>
    </contour>
  </outline>
</glyph>
<glyph name="copyright" format="1">
  <advance width="600"/>
  <unicode hex="00A9"/>
  <outline>
    <contour>
      <point x="427" y="56"/>
      <point x="555" y="127"/>
      <point x="555" y="349" type="curve" smooth="yes"/>
      <point x="555" y="570"/>
      <point x="427" y="641"/>
      <point x="297" y="641" type="curve" smooth="yes"/>
      <point x="166" y="641"/>
      <point x="38" y="570"/>
      <point x="38" y="349" type="curve" smooth="yes"/>
      <point x="38" y="127"/>
      <point x="166" y="56"/>
      <point x="297" y="56" type="curve" smooth="yes"/>
    </contour>
    <contour>
      <point x="168" y="99"/>
      <point x="83" y="174"/>
      <point x="83" y="349" type="curve" smooth="yes"/>
      <point x="83" y="523"/>
      <point x="168" y="598"/>
      <point x="297" y="598" type="curve" smooth="yes"/>
      <point x="425" y="598"/>
      <point x="509" y="523"/>
      <point x="509" y="349" type="curve" smooth="yes"/>
      <point x="509" y="174"/>
      <point x="425" y="99"/>
      <point x="297" y="99" type="curve" smooth="yes"/>
    </contour>
    <contour>
      <point x="382" y="270" type="line"/>
      <point x="367" y="246"/>
      <point x="340" y="229"/>
      <point x="307" y="229" type="curve" smooth="yes"/>
      <point x="246" y="229"/>
      <point x="208" y="273"/>
      <point x="208" y="348" type="curve" smooth="yes"/>
      <point x="208" y="424"/>
      <point x="246" y="467"/>
      <point x="307" y="467" type="curve" smooth="yes"/>
      <point x="339" y="467"/>
      <point x="371" y="450"/>
      <point x="384" y="419" type="curve"/>
      <point x="419" y="438" type="line"/>
      <point x="403" y="472"/>
      <point x="367" y="502"/>
      <point x="309" y="502" type="curve" smooth="yes"/>
      <point x="232" y="502"/>
      <point x="166" y="462"/>
      <point x="166" y="348" type="curve" smooth="yes"/>
      <point x="166" y="235"/>
      <point x="232" y="194"/>
      <point x="309" y="194" type="curve" smooth="yes"/>
      <point x="357" y="194"/>
      <point x="398" y="216"/>
      <point x="418" y="251" type="curve"/>
    </contour>
  </outline>
</glyph>
<glyph name="registered" format="1">
  <advance width="600"/>
  <unicode hex="00AE"/>
  <outline>
    <contour>
      <point x="433" y="170"/>
      <point x="561" y="241"/>
      <point x="561" y="439" type="curve" smooth="yes"/>
      <point x="561" y="636"/>
      <point x="433" y="707"/>
      <point x="297" y="707" type="curve" smooth="yes"/>
      <point x="160" y="707"/>
      <point x="32" y="636"/>
      <point x="32" y="439" type="curve" smooth="yes"/>
      <point x="32" y="241"/>
      <point x="160" y="170"/>
      <point x="297" y="170" type="curve" smooth="yes"/>
    </contour>
    <contour>
      <point x="159" y="213"/>
      <point x="77" y="288"/>
      <point x="77" y="439" type="curve" smooth="yes"/>
      <point x="77" y="589"/>
      <point x="162" y="664"/>
      <point x="297" y="664" type="curve" smooth="yes"/>
      <point x="431" y="664"/>
      <point x="515" y="589"/>
      <point x="515" y="439" type="curve" smooth="yes"/>
      <point x="515" y="288"/>
      <point x="431" y="213"/>
      <point x="297" y="213" type="curve" smooth="yes"/>
    </contour>
    <contour>
      <point x="311" y="550" type="line" smooth="yes"/>
      <point x="345" y="550"/>
      <point x="367" y="536"/>
      <point x="367" y="501" type="curve" smooth="yes"/>
      <point x="367" y="464"/>
      <point x="345" y="450"/>
      <point x="311" y="450" type="curve" smooth="yes"/>
      <point x="244" y="450" type="line"/>
      <point x="244" y="550" type="line"/>
    </contour>
    <contour>
      <point x="340" y="416"/>
      <point x="404" y="426"/>
      <point x="404" y="501" type="curve" smooth="yes"/>
      <point x="404" y="575"/>
      <point x="348" y="585"/>
      <point x="301" y="585" type="curve" smooth="yes"/>
      <point x="207" y="585" type="line"/>
      <point x="207" y="294" type="line"/>
      <point x="244" y="294" type="line"/>
      <point x="244" y="416" type="line"/>
      <point x="299" y="416" type="line" smooth="yes"/>
    </contour>
    <contour>
      <point x="404" y="294" type="line"/>
      <point x="340" y="427" type="line"/>
      <point x="302" y="424" type="line"/>
      <point x="363" y="294" type="line"/>
    </contour>
  </outline>
</glyph>
<glyph name="macron" format="1">
  <advance width="600"/>
  <unicode hex="00AF"/>
  <outline>
    <contour>
      <point x="144" y="667" type="line"/>
      <point x="455" y="667" type="line"/>
      <point x="455" y="731" type="line"/>
      <point x="144" y="731" type="line"/>
    </contour>
  </outline>
</glyph>
<glyph name="degree" format="1">
  <advance width="600"/>
  <unicode hex="00B0"/>
  <outline>
    <contour>
      <point x="322" y="524"/>
      <point x="375" y="577"/>
      <point x="375" y="644" type="curve" smooth="yes"/>
      <point x="375" y="710"/>
      <point x="322" y="763"/>
      <point x="256" y="763" type="curve" smooth="yes"/>
      <point x="189" y="763"/>
      <point x="136" y="710"/>
      <point x="136" y="644" type="curve" smooth="yes"/>
      <point x="136" y="577"/>
      <point x="189" y="524"/>
      <point x="256" y="524" type="curve" smooth="yes"/>
    </contour>
    <contour>
      <point x="214" y="570"/>
      <point x="182" y="602"/>
      <point x="182" y="644" type="curve" smooth="yes"/>
      <point x="182" y="685"/>
      <point x="214" y="717"/>
      <point x="256" y="717" type="curve" smooth="yes"/>
      <point x="297" y="717"/>
      <point x="329" y="685"/>
      <point x="329" y="644" type="curve" smooth="yes"/>
      <point x="329" y="602"/>
      <point x="297" y="570"/>
      <point x="256" y="570" type="curve" smooth="yes"/>
    </contour>
  </outline>
</glyph>
<glyph name="plusminus" format="1">
  <advance width="600"/>
  <unicode hex="00B1"/>
  <outline>
    <contour>
      <point x="99" y="348" type="line"/>
      <point x="506" y="348" type="line"/>
      <point x="506" y="398" type="line"/>
      <point x="99" y="398" type="line"/>
    </contour>
    <contour>
      <point x="336" y="219" type="line"/>
      <point x="336" y="526" type="line"/>
      <point x="270" y="526" type="line"/>
      <point x="270" y="219" type="line"/>
    </contour>
    <contour>
      <point x="99" y="100" type="line"/>
      <point x="506" y="100" type="line"/>
      <point x="506" y="150" type="line"/>
      <point x="99" y="150" type="line"/>
    </contour>
  </outline>
</glyph>
<glyph name="acute" format="1">
  <advance width="600"/>
  <unicode hex="00B4"/>
  <outline>
    <contour>
      <point x="272" y="609" type="line"/>
      <point x="411" y="746" type="line"/>
      <point x="305" y="746" type="line"/>
      <point x="200" y="609" type="line"/>
    </contour>
  </outline>
</glyph>
<glyph name="paragraph" format="1">
  <advance width="600"/>
  <unicode hex="00B6"/>
  <outline>
    <contour>
      <point x="275" y="332" type="line"/>
      <point x="275" y="-120" type="line"/>
      <point x="328" y="-120" type="line"/>
      <point x="328" y="700" type="line"/>
      <point x="266" y="700" type="line" smooth="yes"/>
      <point x="172" y="700"/>
      <point x="58" y="645"/>
      <point x="58" y="520" type="curve" smooth="yes"/>
      <point x="58" y="385"/>
      <point x="172" y="332"/>
      <point x="246" y="332" type="curve" smooth="yes"/>
    </contour>
    <contour>
      <point x="497" y="-120" type="line"/>
      <point x="497" y="700" type="line"/>
      <point x="444" y="700" type="line"/>
      <point x="444" y="-120" type="line"/>
    </contour>
    <contour>
      <point x="287" y="649" type="line"/>
      <point x="477" y="649" type="line"/>
      <point x="477" y="700" type="line"/>
      <point x="287" y="700" type="line"/>
    </contour>
  </outline>
</glyph>
<glyph name="cedilla" format="1">
  <advance width="600"/>
  <unicode hex="00B8"/>
  <outline>
    <contour>
      <point x="228" y="-79" type="line"/>
      <point x="270" y="-91" type="line"/>
      <point x="304" y="0" type="line"/>
      <point x="255" y="0" type="line"/>
    </contour>
    <contour>
      <point x="289" y="-75"/>
      <point x="352" y="-61"/>
      <point x="353" y="-102" type="curve" smooth="yes"/>
      <point x="354" y="-148"/>
      <point x="280" y="-166"/>
      <point x="205" y="-148" type="curve"/>
      <point x="188" y="-192" type="line"/>
      <point x="292" y="-218"/>
      <point x="413" y="-186"/>
      <point x="413" y="-95" type="curve" smooth="yes"/>
      <point x="413" y="-27"/>
      <point x="316" y="-28"/>
      <point x="282" y="-54" type="curve"/>
      <point x="270" y="-91" type="line"/>
    </contour>
  </outline>
</glyph>
<glyph name="AE" format="1">
  <advance width="600"/>
  <unicode hex="00C6"/>
  <outline>
    <contour>
      <point x="360" y="0" type="line"/>
      <point x="360" y="700" type="line"/>
      <point x="303" y="700" type="line"/>
      <point x="303" y="0" type="line"/>
    </contour>
    <contour>
      <point x="347" y="0" type="line"/>
      <point x="579" y="0" type="line"/>
      <point x="579" y="51" type="line"/>
      <point x="347" y="51" type="line"/>
    </contour>
    <contour>
      <point x="347" y="318" type="line"/>
      <point x="525" y="318" type="line"/>
      <point x="525" y="370" type="line"/>
      <point x="347" y="370" type="line"/>
    </contour>
    <contour>
      <point x="347" y="649" type="line"/>
      <point x="579" y="649" type="line"/>
      <point x="579" y="700" type="line"/>
      <point x="347" y="700" type="line"/>
    </contour>
    <contour>
      <point x="17" y="0" type="line"/>
      <point x="76" y="0" type="line"/>
      <point x="290" y="700" type="line"/>
      <point x="231" y="700" type="line"/>
    </contour>
    <contour>
      <point x="226" y="649" type="line"/>
      <point x="325" y="649" type="line"/>
      <point x="343" y="700" type="line"/>
      <point x="243" y="700" type="line"/>
    </contour>
    <contour>
      <point x="111" y="236" type="line"/>
      <point x="335" y="236" type="line"/>
      <point x="344" y="288" type="line"/>
      <point x="128" y="288" type="line"/>
    </contour>
  </outline>
</glyph>
<glyph name="Thorn" format="1">
  <advance width="600"/>
  <unicode hex="00DE"/>
  <outline>
    <contour>
      <point x="176" y="700" type="line"/>
      <point x="119" y="700" type="line"/>
      <point x="119" y="0" type="line"/>
      <point x="176" y="0" type="line"/>
    </contour>
    <contour>
      <point x="152" y="128" type="line"/>
      <point x="282" y="128" type="line" smooth="yes"/>
      <point x="366" y="128"/>
      <point x="492" y="146"/>
      <point x="492" y="367" type="curve" smooth="yes"/>
      <point x="492" y="578"/>
      <point x="366" y="588"/>
      <point x="282" y="588" type="curve" smooth="yes"/>
      <point x="150" y="588" type="line"/>
      <point x="150" y="537" type="line"/>
      <point x="295" y="537" type="line"/>
      <point x="360" y="537"/>
      <point x="434" y="532"/>
      <point x="434" y="367" type="curve" smooth="yes"/>
      <point x="434" y="192"/>
      <point x="360" y="179"/>
      <point x="295" y="179" type="curve" smooth="yes"/>
      <point x="152" y="179" type="line"/>
    </contour>
  </outline>
</glyph>
<glyph name="germandbls" format="1">
  <advance width="600"/>
  <unicode hex="00DF"/>
  <outline>
    <contour>
      <point x="145" y="0" type="line"/>
      <point x="145" y="508" type="line"/>
      <point x="88" y="523" type="line"/>
      <point x="88" y="0" type="line"/>
    </contour>
    <contour>
      <point x="223" y="2" type="line"/>
      <point x="254" y="-6"/>
      <point x="287" y="-11"/>
      <point x="323" y="-11" type="curve" smooth="yes"/>
      <point x="444" y="-11"/>
      <point x="547" y="48"/>
      <point x="547" y="197" type="curve"/>
      <point x="486" y="197" type="line"/>
      <point x="486" y="71"/>
      <point x="403" y="41"/>
      <point x="323" y="41" type="curve" smooth="yes"/>
      <point x="290" y="41"/>
      <point x="258" y="48"/>
      <point x="238" y="55" type="curve"/>
    </contour>
    <contour>
      <point x="497" y="551" type="line"/>
      <point x="497" y="669"/>
      <point x="405" y="726"/>
      <point x="297" y="726" type="curve" smooth="yes"/>
      <point x="189" y="726"/>
      <point x="88" y="662"/>
      <point x="88" y="523" type="curve"/>
      <point x="145" y="508" type="line"/>
      <point x="145" y="645"/>
      <point x="233" y="674"/>
      <point x="297" y="674" type="curve" smooth="yes"/>
      <point x="354" y="674"/>
      <point x="435" y="656"/>
      <point x="435" y="551" type="curve"/>
    </contour>
    <contour>
      <point x="435" y="551" type="line"/>
      <point x="435" y="456"/>
      <point x="334" y="468"/>
      <point x="334" y="391" type="curve" smooth="yes"/>
      <point x="334" y="314"/>
      <point x="486" y="320"/>
      <point x="486" y="197" type="curve"/>
      <point x="547" y="197" type="line"/>
      <point x="547" y="347"/>
      <point x="393" y="354"/>
      <point x="393" y="391" type="curve" smooth="yes"/>
      <point x="393" y="428"/>
      <point x="497" y="445"/>
      <point x="497" y="551" type="curve"/>
    </contour>
  </outline>
</glyph>
<glyph name="ae" format="1">
  <advance width="600"/>
  <unicode hex="00E6"/>
  <outline>
    <contour>
      <point x="303" y="-11"/>
      <point x="317" y="76"/>
      <point x="317" y="76" type="curve"/>
      <point x="289" y="122" type="line"/>
      <point x="282" y="88"/>
      <point x="255" y="40"/>
      <point x="189" y="40" type="curve"/>
      <point x="125" y="40"/>
      <point x="80" y="65"/>
      <point x="80" y="147" type="curve"/>
      <point x="24" y="147" type="line"/>
      <point x="24" y="38"/>
      <point x="81" y="-11"/>
      <point x="180" y="-11" type="curve"/>
    </contour>
    <contour>
      <point x="80" y="147" type="line"/>
      <point x="80" y="232"/>
      <point x="154" y="239"/>
      <point x="225" y="239" type="curve"/>
      <point x="204" y="291" type="line"/>
      <point x="107" y="291"/>
      <point x="24" y="258"/>
      <point x="24" y="147" type="curve"/>
    </contour>
    <contour>
      <point x="302" y="239" type="line"/>
      <point x="302" y="291" type="line"/>
      <point x="204" y="291" type="line"/>
      <point x="225" y="239" type="line"/>
    </contour>
    <contour>
      <point x="171" y="406" type="line"/>
      <point x="183" y="452"/>
      <point x="178" y="492"/>
      <point x="182" y="492" type="curve"/>
      <point x="198" y="492"/>
      <point x="198" y="433"/>
      <point x="181" y="384" type="curve"/>
      <point x="223" y="368" type="line"/>
      <point x="233" y="433"/>
      <point x="215" y="480"/>
      <point x="180" y="480" type="curve"/>
      <point x="153" y="480"/>
      <point x="133" y="450"/>
      <point x="123" y="419" type="curve"/>
    </contour>
    <contour>
      <point x="331" y="237" type="line"/>
      <point x="331" y="361" type="line"/>
      <point x="274" y="341" type="line"/>
      <point x="274" y="238" type="line"/>
    </contour>
    <contour>
      <point x="530" y="119" type="line"/>
      <point x="519" y="89"/>
      <point x="496" y="41"/>
      <point x="440" y="41" type="curve" smooth="yes"/>
      <point x="357" y="41"/>
      <point x="333" y="112"/>
      <point x="333" y="251" type="curve" smooth="yes"/>
      <point x="333" y="394"/>
      <point x="361" y="460"/>
      <point x="436" y="460" type="curve" smooth="yes"/>
      <point x="519" y="460"/>
      <point x="521" y="360"/>
      <point x="521" y="291" type="curve"/>
      <point x="578" y="239" type="line"/>
      <point x="588" y="409"/>
      <point x="554" y="512"/>
      <point x="439" y="512" type="curve" smooth="yes"/>
      <point x="340" y="512"/>
      <point x="274" y="450"/>
      <point x="274" y="253" type="curve" smooth="yes"/>
      <point x="274" y="60"/>
      <point x="327" y="-11"/>
      <point x="438" y="-11" type="curve" smooth="yes"/>
      <point x="500" y="-11"/>
      <point x="551" y="20"/>
      <point x="582" y="96" type="curve"/>
    </contour>
    <contour>
      <point x="329" y="239" type="line"/>
      <point x="578" y="239" type="line"/>
      <point x="536" y="291" type="line"/>
      <point x="329" y="291" type="line"/>
    </contour>
  </outline>
</glyph>
<glyph name="eth" format="1">
  <advance width="600"/>
  <unicode hex="00F0"/>
  <outline>
    <contour>
      <point x="200" y="41"/>
      <point x="137" y="133"/>
      <point x="137" y="251" type="curve" smooth="yes"/>
      <point x="137" y="371"/>
      <point x="191" y="460"/>
      <point x="283" y="460" type="curve" smooth="yes"/>
      <point x="366" y="460"/>
      <point x="436" y="398"/>
      <point x="451" y="336" type="curve"/>
      <point x="481" y="364" type="line"/>
      <point x="458" y="434"/>
      <point x="399" y="512"/>
      <point x="286" y="512" type="curve" smooth="yes"/>
      <point x="147" y="512"/>
      <point x="79" y="404"/>
      <point x="79" y="251" type="curve" smooth="yes"/>
      <point x="79" y="100"/>
      <point x="159" y="-11"/>
      <point x="292" y="-11" type="curve"/>
      <point x="292" y="41" type="line"/>
    </contour>
    <contour>
      <point x="219" y="673" type="line"/>
      <point x="350" y="656"/>
      <point x="449" y="559"/>
      <point x="449" y="328" type="curve" smooth="yes"/>
      <point x="449" y="108"/>
      <point x="385" y="41"/>
      <point x="292" y="41" type="curve"/>
      <point x="292" y="-11" type="line"/>
      <point x="421" y="-11"/>
      <point x="509" y="75"/>
      <point x="509" y="328" type="curve" smooth="yes"/>
      <point x="509" y="570"/>
      <point x="412" y="685"/>
      <point x="243" y="717" type="curve"/>
    </contour>
    <contour>
      <point x="256" y="607" type="line"/>
      <point x="290" y="574" type="line"/>
      <point x="444" y="671" type="line"/>
      <point x="417" y="710" type="line"/>
    </contour>
  </outline>
</glyph>
<glyph name="divide" format="1">
  <advance width="600"/>
  <unicode hex="00F7"/>
  <outline>
    <contour>
      <point x="115" y="278" type="line"/>
      <point x="490" y="278" type="line"/>
      <point x="490" y="330" type="line"/>
      <point x="115" y="330" type="line"/>
    </contour>
    <contour>
      <point x="323" y="115"/>
      <point x="343" y="135"/>
      <point x="343" y="160" type="curve" smooth="yes"/>
      <point x="343" y="185"/>
      <point x="323" y="205"/>
      <point x="298" y="205" type="curve" smooth="yes"/>
      <point x="273" y="205"/>
      <point x="253" y="185"/>
      <point x="253" y="160" type="curve" smooth="yes"/>
      <point x="253" y="135"/>
      <point x="273" y="115"/>
      <point x="298" y="115" type="curve" smooth="yes"/>
    </contour>
    <contour>
      <point x="323" y="406"/>
      <point x="343" y="426"/>
      <point x="343" y="452" type="curve" smooth="yes"/>
      <point x="343" y="476"/>
      <point x="323" y="496"/>
      <point x="298" y="496" type="curve" smooth="yes"/>
      <point x="273" y="496"/>
      <point x="253" y="476"/>
      <point x="253" y="452" type="curve" smooth="yes"/>
      <point x="253" y="426"/>
      <point x="273" y="406"/>
      <point x="298" y="406" type="curve" smooth="yes"/>
    </contour>
  </outline>
</glyph>
<glyph name="thorn" format="1">
  <advance width="600"/>
  <unicode hex="00FE"/>
  <outline>
    <contour>
      <point x="162" y="-200" type="line"/>
      <point x="162" y="800" type="line"/>
      <point x="105" y="800" type="line"/>
      <point x="105" y="-200" type="line"/>
    </contour>
    <contour>
      <point x="156" y="305" type="line"/>
      <point x="169" y="372"/>
      <point x="243" y="459"/>
      <point x="325" y="459" type="curve" smooth="yes"/>
      <point x="415" y="459"/>
      <point x="459" y="398"/>
      <point x="459" y="251" type="curve"/>
      <point x="516" y="251" type="line"/>
      <point x="516" y="434"/>
      <point x="443" y="511"/>
      <point x="335" y="511" type="curve" smooth="yes"/>
      <point x="227" y="511"/>
      <point x="127" y="414"/>
      <point x="127" y="302" type="curve"/>
    </contour>
    <contour>
      <point x="131" y="85"/>
      <point x="212" y="-11"/>
      <point x="327" y="-11" type="curve" smooth="yes"/>
      <point x="434" y="-11"/>
      <point x="516" y="68"/>
      <point x="516" y="251" type="curve"/>
      <point x="459" y="251" type="line"/>
      <point x="459" y="104"/>
      <point x="407" y="41"/>
      <point x="316" y="41" type="curve" smooth="yes"/>
      <point x="234" y="41"/>
      <point x="163" y="123"/>
      <point x="157" y="209" type="curve"/>
      <point x="127" y="210" type="line"/>
    </contour>
  </outline>
</glyph>
<glyph name="aogonek" format="1">
  <advance width="600"/>
  <unicode hex="0105"/>
  <outline>
    <contour>
      <point x="526" y="0" type="line"/>
      <point x="555" y="25" type="line"/>
      <point x="542" y="38" type="line"/>
      <point x="469" y="-5" type="line"/>
    </contour>
    <component base="a"/>
    <component base="ogonekcomb" xOffset="172"/>
  </outline>
</glyph>
<glyph name="idotless" format="1">
  <advance width="600"/>
  <unicode hex="0131"/>
  <outline>
    <contour>
      <point x="111" y="436" type="line"/>
      <point x="261" y="436" type="line"/>
      <point x="261" y="500" type="line"/>
      <point x="111" y="500" type="line"/>
    </contour>
    <contour>
      <point x="328" y="45" type="line"/>
      <point x="328" y="500" type="line"/>
      <point x="256" y="500" type="line"/>
      <point x="256" y="20" type="line"/>
    </contour>
    <contour>
      <point x="256" y="0" type="line"/>
      <point x="464" y="0" type="line"/>
      <point x="464" y="64" type="line"/>
      <point x="256" y="64" type="line"/>
    </contour>
  </outline>
</glyph>
<glyph name="Lslash" format="1">
  <advance width="600"/>
  <unicode hex="0141"/>
  <outline>
    <contour>
      <point x="63" y="194" type="line"/>
      <point x="323" y="454" type="line"/>
      <point x="323" y="515" type="line"/>
      <point x="63" y="254" type="line"/>
    </contour>
    <component base="L"/>
  </outline>
</glyph>
<glyph name="lslash" format="1">
  <advance width="600"/>
  <unicode hex="0142"/>
  <outline>
    <contour>
      <point x="157" y="191" type="line"/>
      <point x="376" y="410" type="line"/>
      <point x="376" y="471" type="line"/>
      <point x="157" y="251" type="line"/>
    </contour>
    <component base="l"/>
  </outline>
</glyph>
<glyph name="Eng" format="1">
  <advance width="600"/>
  <unicode hex="014A"/>
  <outline>
    <contour>
      <point x="503" y="10" type="line"/>
      <point x="174" y="700" type="line"/>
      <point x="117" y="700" type="line"/>
      <point x="447" y="0" type="line"/>
    </contour>
    <contour>
      <point x="436" y="-192"/>
      <point x="503" y="-127"/>
      <point x="503" y="-9" type="curve"/>
      <point x="503" y="13" type="line"/>
      <point x="446" y="3" type="line"/>
      <point x="446" y="-114"/>
      <point x="401" y="-140"/>
      <point x="313" y="-140" type="curve"/>
      <point x="272" y="-140"/>
      <point x="226" y="-130"/>
      <point x="210" y="-126" type="curve"/>
      <point x="196" y="-178" type="line"/>
      <point x="220" y="-184"/>
      <point x="268" y="-192"/>
      <point x="320" y="-192" type="curve"/>
    </contour>
    <contour>
      <point x="156" y="0" type="line"/>
      <point x="156" y="700" type="line"/>
      <point x="99" y="700" type="line"/>
      <point x="99" y="0" type="line"/>
    </contour>
    <contour>
      <point x="503" y="0" type="line"/>
      <point x="503" y="700" type="line"/>
      <point x="446" y="700" type="line"/>
      <point x="446" y="0" type="line"/>
    </contour>
  </outline>
</glyph>
<glyph name="eng" format="1">
  <advance width="600"/>
  <unicode hex="014B"/>
  <outline>
    <contour>
      <point x="225" y="-183" type="line"/>
      <point x="243" y="-188"/>
      <point x="270" y="-192"/>
      <point x="308" y="-192" type="curve"/>
      <point x="399" y="-192"/>
      <point x="485" y="-130"/>
      <point x="485" y="-6" type="curve"/>
      <point x="485" y="10" type="line"/>
      <point x="429" y="3" type="line"/>
      <point x="429" y="-83"/>
      <point x="391" y="-140"/>
      <point x="303" y="-140" type="curve"/>
      <point x="276" y="-140"/>
      <point x="248" y="-135"/>
      <point x="239" y="-131" type="curve"/>
    </contour>
    <component base="n"/>
  </outline>
</glyph>
<glyph name="OE" format="1">
  <advance width="600"/>
  <unicode hex="0152"/>
  <outline>
    <contour>
      <point x="255" y="-11"/>
      <point x="285" y="-6"/>
      <point x="310" y="7" type="curve"/>
      <point x="289" y="59" type="line"/>
      <point x="270" y="46"/>
      <point x="249" y="41"/>
      <point x="226" y="41" type="curve" smooth="yes"/>
      <point x="161" y="41"/>
      <point x="92" y="96"/>
      <point x="92" y="348" type="curve" smooth="yes"/>
      <point x="92" y="599"/>
      <point x="161" y="654"/>
      <point x="226" y="654" type="curve" smooth="yes"/>
      <point x="249" y="654"/>
      <point x="270" y="649"/>
      <point x="289" y="636" type="curve"/>
      <point x="310" y="686" type="line"/>
      <point x="285" y="700"/>
      <point x="256" y="706"/>
      <point x="226" y="706" type="curve" smooth="yes"/>
      <point x="131" y="706"/>
      <point x="31" y="641"/>
      <point x="31" y="348" type="curve" smooth="yes"/>
      <point x="31" y="54"/>
      <point x="131" y="-11"/>
      <point x="226" y="-11" type="curve" smooth="yes"/>
    </contour>
    <contour>
      <point x="566" y="0" type="line"/>
      <point x="566" y="51" type="line"/>
      <point x="291" y="51" type="line"/>
      <point x="291" y="0" type="line"/>
    </contour>
    <contour>
      <point x="344" y="0" type="line"/>
      <point x="344" y="700" type="line"/>
      <point x="287" y="700" type="line"/>
      <point x="287" y="0" type="line"/>
    </contour>
    <contour>
      <point x="542" y="318" type="line"/>
      <point x="542" y="370" type="line"/>
      <point x="335" y="370" type="line"/>
      <point x="335" y="318" type="line"/>
    </contour>
    <contour>
      <point x="566" y="649" type="line"/>
      <point x="566" y="700" type="line"/>
      <point x="277" y="700" type="line"/>
      <point x="277" y="649" type="line"/>
    </contour>
  </outline>
</glyph>
<glyph name="oe" format="1">
  <advance width="600"/>
  <unicode hex="0153"/>
  <outline>
    <contour>
      <point x="276" y="-11"/>
      <point x="330" y="77"/>
      <point x="330" y="251" type="curve" smooth="yes"/>
      <point x="330" y="424"/>
      <point x="276" y="512"/>
      <point x="184" y="512" type="curve" smooth="yes"/>
      <point x="100" y="512"/>
      <point x="38" y="443"/>
      <point x="38" y="251" type="curve" smooth="yes"/>
      <point x="38" y="58"/>
      <point x="100" y="-11"/>
      <point x="184" y="-11" type="curve" smooth="yes"/>
    </contour>
    <contour>
      <point x="135" y="41"/>
      <point x="97" y="89"/>
      <point x="97" y="251" type="curve" smooth="yes"/>
      <point x="97" y="410"/>
      <point x="135" y="460"/>
      <point x="184" y="460" type="curve" smooth="yes"/>
      <point x="233" y="460"/>
      <point x="269" y="410"/>
      <point x="269" y="251" type="curve" smooth="yes"/>
      <point x="269" y="89"/>
      <point x="233" y="41"/>
      <point x="184" y="41" type="curve" smooth="yes"/>
    </contour>
    <contour>
      <point x="489" y="-11"/>
      <point x="544" y="20"/>
      <point x="575" y="96" type="curve"/>
      <point x="524" y="119" type="line"/>
      <point x="513" y="89"/>
      <point x="491" y="41"/>
      <point x="429" y="41" type="curve" smooth="yes"/>
      <point x="351" y="41"/>
      <point x="330" y="118"/>
      <point x="330" y="251" type="curve" smooth="yes"/>
      <point x="330" y="388"/>
      <point x="360" y="460"/>
      <point x="431" y="460" type="curve" smooth="yes"/>
      <point x="513" y="460"/>
      <point x="514" y="360"/>
      <point x="514" y="291" type="curve"/>
      <point x="571" y="239" type="line"/>
      <point x="581" y="409"/>
      <point x="549" y="512"/>
      <point x="434" y="512" type="curve" smooth="yes"/>
      <point x="327" y="512"/>
      <point x="271" y="425"/>
      <point x="271" y="253" type="curve" smooth="yes"/>
      <point x="271" y="86"/>
      <point x="314" y="-11"/>
      <point x="427" y="-11" type="curve" smooth="yes"/>
    </contour>
    <contour>
      <point x="571" y="239" type="line"/>
      <point x="530" y="291" type="line"/>
      <point x="326" y="291" type="line"/>
      <point x="326" y="239" type="line"/>
    </contour>
  </outline>
</glyph>
<glyph name="uogonek" format="1">
  <advance width="600"/>
  <unicode hex="0173"/>
  <outline>
    <contour>
      <point x="457" y="-1" type="line"/>
      <point x="484" y="-8" type="line"/>
      <point x="484" y="13" type="line"/>
      <point x="465" y="3" type="line"/>
    </contour>
    <component base="u"/>
    <component base="ogonekcomb" xOffset="148"/>
  </outline>
</glyph>
<glyph name="circumflex" format="1">
  <advance width="600"/>
  <unicode hex="02C6"/>
  <outline>
    <contour>
      <point x="328" y="744" type="line"/>
      <point x="271" y="744" type="line"/>
      <point x="151" y="619" type="line"/>
      <point x="222" y="619" type="line"/>
      <point x="300" y="703" type="line"/>
      <point x="377" y="619" type="line"/>
      <point x="448" y="619" type="line"/>
    </contour>
  </outline>
</glyph>
<glyph name="caron" format="1">
  <advance width="600"/>
  <unicode hex="02C7"/>
  <outline>
    <contour>
      <point x="377" y="744" type="line"/>
      <point x="300" y="659" type="line"/>
      <point x="222" y="744" type="line"/>
      <point x="151" y="744" type="line"/>
      <point x="271" y="619" type="line"/>
      <point x="328" y="619" type="line"/>
      <point x="448" y="744" type="line"/>
    </contour>
  </outline>
</glyph>
<glyph name="breve" format="1">
  <advance width="600"/>
  <unicode hex="02D8"/>
  <outline>
    <contour>
      <point x="359" y="740" type="line"/>
      <point x="359" y="717"/>
      <point x="353" y="657"/>
      <point x="300" y="657" type="curve" smooth="yes"/>
      <point x="248" y="657"/>
      <point x="241" y="717"/>
      <point x="241" y="740" type="curve"/>
      <point x="187" y="740" type="line"/>
      <point x="187" y="678"/>
      <point x="222" y="616"/>
      <point x="299" y="616" type="curve" smooth="yes"/>
      <point x="376" y="616"/>
      <point x="413" y="678"/>
      <point x="413" y="740" type="curve"/>
    </contour>
  </outline>
</glyph>
<glyph name="dotaccent" format="1">
  <advance width="600"/>
  <unicode hex="02D9"/>
  <outline>
    <contour>
      <point x="323" y="648"/>
      <point x="346" y="671"/>
      <point x="346" y="700" type="curve" smooth="yes"/>
      <point x="346" y="729"/>
      <point x="323" y="752"/>
      <point x="294" y="752" type="curve" smooth="yes"/>
      <point x="265" y="752"/>
      <point x="242" y="729"/>
      <point x="242" y="700" type="curve" smooth="yes"/>
      <point x="242" y="671"/>
      <point x="265" y="648"/>
      <point x="294" y="648" type="curve" smooth="yes"/>
    </contour>
  </outline>
</glyph>
<glyph name="ring" format="1">
  <advance width="600"/>
  <unicode hex="02DA"/>
  <outline>
    <contour>
      <point x="342" y="580"/>
      <point x="380" y="616"/>
      <point x="380" y="663" type="curve" smooth="yes"/>
      <point x="380" y="708"/>
      <point x="342" y="745"/>
      <point x="298" y="745" type="curve" smooth="yes"/>
      <point x="252" y="745"/>
      <point x="214" y="708"/>
      <point x="214" y="663" type="curve" smooth="yes"/>
      <point x="214" y="616"/>
      <point x="252" y="580"/>
      <point x="298" y="580" type="curve" smooth="yes"/>
    </contour>
    <contour>
      <point x="274" y="620"/>
      <point x="254" y="637"/>
      <point x="254" y="664" type="curve" smooth="yes"/>
      <point x="254" y="687"/>
      <point x="274" y="704"/>
      <point x="298" y="704" type="curve" smooth="yes"/>
      <point x="321" y="704"/>
      <point x="341" y="687"/>
      <point x="341" y="664" type="curve" smooth="yes"/>
      <point x="341" y="637"/>
      <point x="321" y="620"/>
      <point x="298" y="620" type="curve" smooth="yes"/>
    </contour>
  </outline>
</glyph>
<glyph name="ogonek" format="1">
  <advance width="600"/>
  <unicode hex="02DB"/>
  <outline>
    <contour>
      <point x="307" y="0" type="line" smooth="yes"/>
      <point x="307" y="0"/>
      <point x="208" y="-42"/>
      <point x="208" y="-113" type="curve" smooth="yes"/>
      <point x="208" y="-203"/>
      <point x="318" y="-213"/>
      <point x="393" y="-190" type="curve"/>
      <point x="375" y="-144" type="line"/>
      <point x="343" y="-153"/>
      <point x="270" y="-163"/>
      <point x="270" y="-106" type="curve" smooth="yes"/>
      <point x="270" y="-50"/>
      <point x="354" y="0"/>
      <point x="354" y="0" type="curve" smooth="yes"/>
    </contour>
  </outline>
</glyph>
<glyph name="tilde" format="1">
  <advance width="600"/>
  <unicode hex="02DC"/>
  <outline>
    <contour>
      <point x="119" y="692"/>
      <point x="166" y="745"/>
      <point x="227" y="745" type="curve" smooth="yes"/>
      <point x="292" y="745"/>
      <point x="314" y="687"/>
      <point x="359" y="687" type="curve" smooth="yes"/>
      <point x="404" y="687"/>
      <point x="431" y="730"/>
      <point x="431" y="730" type="curve"/>
      <point x="469" y="696" type="line"/>
      <point x="465" y="690"/>
      <point x="419" y="639"/>
      <point x="358" y="639" type="curve" smooth="yes"/>
      <point x="293" y="639"/>
      <point x="271" y="696"/>
      <point x="226" y="696" type="curve" smooth="yes"/>
      <point x="181" y="696"/>
      <point x="155" y="654"/>
      <point x="155" y="654" type="curve"/>
      <point x="116" y="687" type="line"/>
    </contour>
  </outline>
</glyph>
<glyph name="hungarumlaut" format="1">
  <advance width="600"/>
  <unicode hex="02DD"/>
  <outline>
    <contour>
      <point x="239" y="609" type="line"/>
      <point x="318" y="743" type="line"/>
      <point x="248" y="743" type="line"/>
      <point x="191" y="609" type="line"/>
    </contour>
    <contour>
      <point x="362" y="609" type="line"/>
      <point x="473" y="743" type="line"/>
      <point x="399" y="743" type="line"/>
      <point x="316" y="609" type="line"/>
    </contour>
  </outline>
</glyph>
<glyph name="strokeshortcomb" format="1">
  <advance width="600"/>
  <unicode hex="0335"/>
  <outline>
    <contour>
      <point x="148" y="329" type="line"/>
      <point x="446" y="329" type="line"/>
      <point x="446" y="379" type="line"/>
      <point x="148" y="379" type="line"/>
    </contour>
  </outline>
</glyph>
<glyph name="strokelongcomb" format="1">
  <advance width="600"/>
  <unicode hex="0336"/>
  <outline>
    <contour>
      <point x="78" y="333" type="line"/>
      <point x="520" y="333" type="line"/>
      <point x="520" y="375" type="line"/>
      <point x="78" y="375" type="line"/>
    </contour>
  </outline>
</glyph>
<glyph name="slashshortcomb" format="1">
  <advance width="600"/>
  <unicode hex="0337"/>
  <outline>
    <contour>
      <point x="451" y="534" type="line"/>
      <point x="67" y="-33" type="line"/>
      <point x="122" y="-33" type="line"/>
      <point x="506" y="534" type="line"/>
    </contour>
  </outline>
</glyph>
<glyph name="slashlongcomb" format="1">
  <advance width="600"/>
  <unicode hex="0338"/>
  <outline>
    <contour>
      <point x="499" y="727" type="line"/>
      <point x="31" y="-33" type="line"/>
      <point x="97" y="-33" type="line"/>
      <point x="565" y="727" type="line"/>
    </contour>
  </outline>
</glyph>
<glyph name="endash" format="1">
  <advance width="600"/>
  <unicode hex="2013"/>
  <outline>
    <contour>
      <point x="111" y="278" type="line"/>
      <point x="479" y="278" type="line"/>
      <point x="479" y="330" type="line"/>
      <point x="111" y="330" type="line"/>
    </contour>
  </outline>
</glyph>
<glyph name="emdash" format="1">
  <advance width="600"/>
  <unicode hex="2014"/>
  <outline>
    <contour>
      <point x="32" y="278" type="line"/>
      <point x="566" y="278" type="line"/>
      <point x="566" y="330" type="line"/>
      <point x="32" y="330" type="line"/>
    </contour>
  </outline>
</glyph>
<glyph name="quoteleft" format="1">
  <advance width="600"/>
  <unicode hex="2018"/>
  <outline>
    <contour>
      <point x="265" y="667"/>
      <point x="239" y="641"/>
      <point x="239" y="609" type="curve" smooth="yes"/>
      <point x="239" y="578"/>
      <point x="265" y="552"/>
      <point x="297" y="552" type="curve" smooth="yes"/>
      <point x="329" y="552"/>
      <point x="355" y="578"/>
      <point x="355" y="609" type="curve" smooth="yes"/>
      <point x="355" y="641"/>
      <point x="329" y="667"/>
      <point x="297" y="667" type="curve" smooth="yes"/>
    </contour>
    <contour>
      <point x="338" y="751" type="line"/>
      <point x="299" y="768" type="line"/>
      <point x="244" y="631" type="line"/>
      <point x="302" y="639" type="line"/>
    </contour>
  </outline>
</glyph>
<glyph name="quoteright" format="1">
  <advance width="600"/>
  <unicode hex="2019"/>
  <outline>
    <contour>
      <point x="344" y="654"/>
      <point x="370" y="679"/>
      <point x="370" y="712" type="curve" smooth="yes"/>
      <point x="370" y="743"/>
      <point x="344" y="768"/>
      <point x="312" y="768" type="curve" smooth="yes"/>
      <point x="280" y="768"/>
      <point x="255" y="743"/>
      <point x="255" y="712" type="curve" smooth="yes"/>
      <point x="255" y="679"/>
      <point x="280" y="654"/>
      <point x="312" y="654" type="curve" smooth="yes"/>
    </contour>
    <contour>
      <point x="271" y="570" type="line"/>
      <point x="310" y="552" type="line"/>
      <point x="365" y="690" type="line"/>
      <point x="307" y="682" type="line"/>
    </contour>
  </outline>
</glyph>
<glyph name="quotedblleft" format="1">
  <advance width="600"/>
  <unicode hex="201C"/>
  <outline>
    <contour>
      <point x="257" y="639" type="line"/>
      <point x="293" y="751" type="line"/>
      <point x="254" y="769" type="line"/>
      <point x="199" y="631" type="line"/>
    </contour>
    <contour>
      <point x="455" y="553"/>
      <point x="481" y="578"/>
      <point x="481" y="609" type="curve" smooth="yes"/>
      <point x="481" y="642"/>
      <point x="455" y="667"/>
      <point x="423" y="667" type="curve" smooth="yes"/>
      <point x="391" y="667"/>
      <point x="366" y="642"/>
      <point x="366" y="609" type="curve" smooth="yes"/>
      <point x="366" y="578"/>
      <point x="391" y="553"/>
      <point x="423" y="553" type="curve" smooth="yes"/>
    </contour>
    <contour>
      <point x="428" y="639" type="line"/>
      <point x="464" y="751" type="line"/>
      <point x="425" y="769" type="line"/>
      <point x="370" y="631" type="line"/>
    </contour>
    <contour>
      <point x="284" y="553"/>
      <point x="310" y="578"/>
      <point x="310" y="609" type="curve" smooth="yes"/>
      <point x="310" y="642"/>
      <point x="284" y="667"/>
      <point x="252" y="667" type="curve" smooth="yes"/>
      <point x="220" y="667"/>
      <point x="194" y="642"/>
      <point x="194" y="609" type="curve" smooth="yes"/>
      <point x="194" y="578"/>
      <point x="220" y="553"/>
      <point x="252" y="553" type="curve" smooth="yes"/>
    </contour>
  </outline>
</glyph>
<glyph name="quotedblright" format="1">
  <advance width="600"/>
  <unicode hex="201D"/>
  <outline>
    <contour>
      <point x="395" y="649"/>
      <point x="421" y="675"/>
      <point x="421" y="708" type="curve" smooth="yes"/>
      <point x="421" y="738"/>
      <point x="395" y="764"/>
      <point x="363" y="764" type="curve" smooth="yes"/>
      <point x="332" y="764"/>
      <point x="306" y="738"/>
      <point x="306" y="708" type="curve" smooth="yes"/>
      <point x="306" y="675"/>
      <point x="332" y="649"/>
      <point x="363" y="649" type="curve" smooth="yes"/>
    </contour>
    <contour>
      <point x="243" y="685" type="line"/>
      <point x="185" y="678" type="line"/>
      <point x="149" y="565" type="line"/>
      <point x="188" y="548" type="line"/>
    </contour>
    <contour>
      <point x="222" y="649"/>
      <point x="248" y="675"/>
      <point x="248" y="708" type="curve" smooth="yes"/>
      <point x="248" y="738"/>
      <point x="222" y="764"/>
      <point x="190" y="764" type="curve" smooth="yes"/>
      <point x="158" y="764"/>
      <point x="132" y="738"/>
      <point x="132" y="708" type="curve" smooth="yes"/>
      <point x="132" y="675"/>
      <point x="158" y="649"/>
      <point x="190" y="649" type="curve" smooth="yes"/>
    </contour>
    <contour>
      <point x="417" y="685" type="line"/>
      <point x="358" y="678" type="line"/>
      <point x="322" y="565" type="line"/>
      <point x="361" y="548" type="line"/>
    </contour>
  </outline>
</glyph>
<glyph name="dagger" format="1">
  <advance width="600"/>
  <unicode hex="2020"/>
  <outline>
    <contour>
      <point x="334" y="0" type="line"/>
      <point x="334" y="680" type="line"/>
      <point x="263" y="680" type="line"/>
      <point x="263" y="0" type="line"/>
    </contour>
    <contour>
      <point x="117" y="436" type="line"/>
      <point x="482" y="436" type="line"/>
      <point x="482" y="500" type="line"/>
      <point x="117" y="500" type="line"/>
    </contour>
  </outline>
</glyph>
<glyph name="daggerdbl" format="1">
  <advance width="600"/>
  <unicode hex="2021"/>
  <outline>
    <contour>
      <point x="117" y="175" type="line"/>
      <point x="482" y="175" type="line"/>
      <point x="482" y="239" type="line"/>
      <point x="117" y="239" type="line"/>
    </contour>
    <component base="dagger"/>
  </outline>
</glyph>
<glyph name="bullet" format="1">
  <advance width="600"/>
  <unicode hex="2022"/>
  <outline>
    <contour>
      <point x="350" y="238"/>
      <point x="393" y="281"/>
      <point x="393" y="335" type="curve" smooth="yes"/>
      <point x="393" y="390"/>
      <point x="350" y="433"/>
      <point x="296" y="433" type="curve" smooth="yes"/>
      <point x="242" y="433"/>
      <point x="199" y="390"/>
      <point x="199" y="335" type="curve" smooth="yes"/>
      <point x="199" y="281"/>
      <point x="242" y="238"/>
      <point x="296" y="238" type="curve" smooth="yes"/>
    </contour>
  </outline>
</glyph>
<glyph name="perthousand" format="1">
  <advance width="600"/>
  <unicode hex="2030"/>
  <outline>
    <contour>
      <point x="570" y="552" type="line"/>
      <point x="540" y="592" type="line"/>
      <point x="14" y="267" type="line"/>
      <point x="44" y="226" type="line"/>
    </contour>
    <contour>
      <point x="248" y="3"/>
      <point x="296" y="32"/>
      <point x="296" y="111" type="curve" smooth="yes"/>
      <point x="296" y="188"/>
      <point x="248" y="217"/>
      <point x="193" y="217" type="curve" smooth="yes"/>
      <point x="138" y="217"/>
      <point x="92" y="188"/>
      <point x="92" y="111" type="curve" smooth="yes"/>
      <point x="92" y="32"/>
      <point x="138" y="3"/>
      <point x="193" y="3" type="curve" smooth="yes"/>
    </contour>
    <contour>
      <point x="164" y="35"/>
      <point x="140" y="49"/>
      <point x="140" y="112" type="curve" smooth="yes"/>
      <point x="140" y="168"/>
      <point x="164" y="184"/>
      <point x="193" y="184" type="curve" smooth="yes"/>
      <point x="222" y="184"/>
      <point x="248" y="168"/>
      <point x="248" y="112" type="curve" smooth="yes"/>
      <point x="248" y="49"/>
      <point x="222" y="35"/>
      <point x="193" y="35" type="curve" smooth="yes"/>
    </contour>
    <contour>
      <point x="498" y="3"/>
      <point x="545" y="32"/>
      <point x="545" y="111" type="curve" smooth="yes"/>
      <point x="545" y="188"/>
      <point x="498" y="217"/>
      <point x="443" y="217" type="curve" smooth="yes"/>
      <point x="388" y="217"/>
      <point x="341" y="188"/>
      <point x="341" y="111" type="curve" smooth="yes"/>
      <point x="341" y="32"/>
      <point x="388" y="3"/>
      <point x="443" y="3" type="curve" smooth="yes"/>
    </contour>
    <contour>
      <point x="413" y="35"/>
      <point x="389" y="49"/>
      <point x="389" y="112" type="curve" smooth="yes"/>
      <point x="389" y="168"/>
      <point x="413" y="184"/>
      <point x="443" y="184" type="curve" smooth="yes"/>
      <point x="471" y="184"/>
      <point x="497" y="168"/>
      <point x="497" y="112" type="curve" smooth="yes"/>
      <point x="497" y="49"/>
      <point x="471" y="35"/>
      <point x="443" y="35" type="curve" smooth="yes"/>
    </contour>
    <contour>
      <point x="249" y="469"/>
      <point x="296" y="498"/>
      <point x="296" y="577" type="curve" smooth="yes"/>
      <point x="296" y="654"/>
      <point x="249" y="683"/>
      <point x="194" y="683" type="curve" smooth="yes"/>
      <point x="139" y="683"/>
      <point x="93" y="654"/>
      <point x="93" y="577" type="curve" smooth="yes"/>
      <point x="93" y="498"/>
      <point x="139" y="469"/>
      <point x="194" y="469" type="curve" smooth="yes"/>
    </contour>
    <contour>
      <point x="164" y="502"/>
      <point x="141" y="516"/>
      <point x="141" y="578" type="curve" smooth="yes"/>
      <point x="141" y="634"/>
      <point x="164" y="650"/>
      <point x="194" y="650" type="curve" smooth="yes"/>
      <point x="223" y="650"/>
      <point x="248" y="634"/>
      <point x="248" y="578" type="curve" smooth="yes"/>
      <point x="248" y="516"/>
      <point x="223" y="502"/>
      <point x="194" y="502" type="curve" smooth="yes"/>
    </contour>
  </outline>
</glyph>
<glyph name="guilsinglleft" format="1">
  <advance width="600"/>
  <unicode hex="2039"/>
  <outline>
    <contour>
      <point x="224" y="265" type="line"/>
      <point x="427" y="502" type="line"/>
      <point x="399" y="530" type="line"/>
      <point x="180" y="319" type="line"/>
    </contour>
    <contour>
      <point x="399" y="57" type="line"/>
      <point x="427" y="85" type="line"/>
      <point x="224" y="323" type="line"/>
      <point x="180" y="268" type="line"/>
    </contour>
    <contour>
      <point x="180" y="268" type="line"/>
      <point x="220" y="268" type="line"/>
      <point x="220" y="319" type="line"/>
      <point x="180" y="319" type="line"/>
    </contour>
  </outline>
</glyph>
<glyph name="fraction" format="1">
  <advance width="600"/>
  <unicode hex="2044"/>
  <outline>
    <contour>
      <point x="491" y="800" type="line"/>
      <point x="52" y="-142" type="line"/>
      <point x="102" y="-142" type="line"/>
      <point x="541" y="800" type="line"/>
    </contour>
  </outline>
</glyph>
<glyph name="euro" format="1">
  <advance width="600"/>
  <unicode hex="20AC"/>
  <outline>
    <contour>
      <point x="429" y="-11"/>
      <point x="498" y="25"/>
      <point x="535" y="98" type="curve"/>
      <point x="486" y="126" type="line"/>
      <point x="458" y="69"/>
      <point x="404" y="41"/>
      <point x="345" y="41" type="curve" smooth="yes"/>
      <point x="238" y="41"/>
      <point x="175" y="127"/>
      <point x="175" y="348" type="curve" smooth="yes"/>
      <point x="175" y="569"/>
      <point x="240" y="654"/>
      <point x="347" y="654" type="curve" smooth="yes"/>
      <point x="406" y="654"/>
      <point x="454" y="625"/>
      <point x="486" y="564" type="curve"/>
      <point x="534" y="591" type="line"/>
      <point x="493" y="668"/>
      <point x="429" y="706"/>
      <point x="347" y="706" type="curve"/>
      <point x="203" y="706"/>
      <point x="115" y="607"/>
      <point x="115" y="348" type="curve" smooth="yes"/>
      <point x="115" y="88"/>
      <point x="200" y="-11"/>
      <point x="345" y="-11" type="curve" smooth="yes"/>
    </contour>
    <contour>
      <point x="410" y="237" type="line"/>
      <point x="416" y="288" type="line"/>
      <point x="28" y="288" type="line"/>
      <point x="22" y="237" type="line"/>
    </contour>
    <contour>
      <point x="433" y="412" type="line"/>
      <point x="439" y="463" type="line"/>
      <point x="41" y="463" type="line"/>
      <point x="35" y="412" type="line"/>
    </contour>
  </outline>
</glyph>
<glyph name="trademark" format="1">
  <advance width="600"/>
  <unicode hex="2122"/>
  <outline>
    <contour>
      <point x="170" y="426" type="line"/>
      <point x="170" y="700" type="line"/>
      <point x="131" y="700" type="line"/>
      <point x="131" y="426" type="line"/>
    </contour>
    <contour>
      <point x="33" y="664" type="line"/>
      <point x="275" y="664" type="line"/>
      <point x="275" y="700" type="line"/>
      <point x="33" y="700" type="line"/>
    </contour>
    <contour>
      <point x="339" y="426" type="line"/>
      <point x="352" y="700" type="line"/>
      <point x="317" y="700" type="line"/>
      <point x="300" y="426" type="line"/>
    </contour>
    <contour>
      <point x="553" y="426" type="line"/>
      <point x="534" y="700" type="line"/>
      <point x="500" y="700" type="line"/>
      <point x="511" y="426" type="line"/>
    </contour>
    <contour>
      <point x="431" y="520" type="line"/>
      <point x="414" y="450" type="line"/>
      <point x="448" y="450" type="line"/>
      <point x="514" y="700" type="line"/>
      <point x="482" y="700" type="line"/>
    </contour>
    <contour>
      <point x="337" y="700" type="line"/>
      <point x="405" y="450" type="line"/>
      <point x="439" y="450" type="line"/>
      <point x="422" y="520" type="line"/>
      <point x="371" y="700" type="line"/>
    </contour>
  </outline>
</glyph>
<glyph name="upArrow" format="1">
  <advance width="600"/>
  <unicode hex="2191"/>
  <outline>
    <contour>
      <point x="316" y="93" type="line"/>
      <point x="316" y="382" type="line"/>
      <point x="269" y="382" type="line" smooth="yes"/>
      <point x="269" y="93" type="line"/>
    </contour>
    <contour>
      <point x="293" y="449" type="line"/>
      <point x="224" y="360" type="line"/>
      <point x="362" y="360" type="line"/>
    </contour>
  </outline>
</glyph>
<glyph name="emptyset" format="1">
  <advance width="600"/>
  <unicode hex="2205"/>
  <outline>
    <contour>
      <point x="463" y="-2"/>
      <point x="593" y="128"/>
      <point x="593" y="288" type="curve" smooth="yes"/>
      <point x="593" y="448"/>
      <point x="463" y="578"/>
      <point x="303" y="578" type="curve" smooth="yes"/>
      <point x="142" y="578"/>
      <point x="12" y="448"/>
      <point x="12" y="288" type="curve" smooth="yes"/>
      <point x="12" y="128"/>
      <point x="142" y="-2"/>
      <point x="303" y="-2" type="curve" smooth="yes"/>
    </contour>
    <contour>
      <point x="177" y="62"/>
      <point x="76" y="163"/>
      <point x="76" y="288" type="curve" smooth="yes"/>
      <point x="76" y="413"/>
      <point x="177" y="514"/>
      <point x="303" y="514" type="curve" smooth="yes"/>
      <point x="428" y="514"/>
      <point x="529" y="413"/>
      <point x="529" y="288" type="curve" smooth="yes"/>
      <point x="529" y="163"/>
      <point x="428" y="62"/>
      <point x="303" y="62" type="curve" smooth="yes"/>
    </contour>
    <contour>
      <point x="12" y="46" type="line"/>
      <point x="48" y="10" type="line"/>
      <point x="574" y="535" type="line"/>
      <point x="538" y="571" type="line"/>
    </contour>
  </outline>
</glyph>
<glyph name="minus" format="1">
  <advance width="600"/>
  <unicode hex="2212"/>
  <outline>
    <contour>
      <point x="115" y="278" type="line"/>
      <point x="490" y="278" type="line"/>
      <point x="490" y="330" type="line"/>
      <point x="115" y="330" type="line"/>
    </contour>
  </outline>
</glyph>
<glyph name="radical" format="1">
  <advance width="600"/>
  <unicode hex="221A"/>
  <outline>
    <contour>
      <point x="278" y="0" type="line"/>
      <point x="472" y="869" type="line"/>
      <point x="395" y="869" type="line"/>
      <point x="201" y="0" type="line"/>
    </contour>
    <contour>
      <point x="266" y="0" type="line"/>
      <point x="266" y="64" type="line"/>
      <point x="124" y="64" type="line"/>
      <point x="124" y="0" type="line"/>
    </contour>
    <contour>
      <point x="189" y="0" type="line"/>
      <point x="105" y="375" type="line"/>
      <point x="28" y="375" type="line"/>
      <point x="112" y="0" type="line"/>
    </contour>
    <contour>
      <point x="598" y="805" type="line"/>
      <point x="598" y="869" type="line"/>
      <point x="443" y="869" type="line"/>
      <point x="443" y="805" type="line"/>
    </contour>
  </outline>
</glyph>
<glyph name="infinity" format="1">
  <advance width="600"/>
  <unicode hex="221E"/>
  <outline>
    <contour>
      <point x="296" y="148"/>
      <point x="319" y="309"/>
      <point x="319" y="309" type="curve" smooth="yes"/>
      <point x="319" y="309"/>
      <point x="296" y="468"/>
      <point x="185" y="475" type="curve" smooth="yes"/>
      <point x="101" y="480"/>
      <point x="49" y="413"/>
      <point x="49" y="309" type="curve" smooth="yes"/>
      <point x="49" y="203"/>
      <point x="101" y="136"/>
      <point x="185" y="141" type="curve" smooth="yes"/>
    </contour>
    <contour>
      <point x="131" y="186"/>
      <point x="95" y="223"/>
      <point x="95" y="309" type="curve" smooth="yes"/>
      <point x="95" y="393"/>
      <point x="131" y="430"/>
      <point x="181" y="430" type="curve" smooth="yes"/>
      <point x="252" y="430"/>
      <point x="277" y="309"/>
      <point x="277" y="309" type="curve" smooth="yes"/>
      <point x="277" y="309"/>
      <point x="252" y="186"/>
      <point x="181" y="186" type="curve" smooth="yes"/>
    </contour>
    <contour>
      <point x="495" y="136"/>
      <point x="547" y="203"/>
      <point x="547" y="309" type="curve" smooth="yes"/>
      <point x="547" y="413"/>
      <point x="495" y="480"/>
      <point x="411" y="475" type="curve" smooth="yes"/>
      <point x="300" y="468"/>
      <point x="277" y="309"/>
      <point x="277" y="309" type="curve" smooth="yes"/>
      <point x="277" y="309"/>
      <point x="300" y="148"/>
      <point x="411" y="141" type="curve" smooth="yes"/>
    </contour>
    <contour>
      <point x="344" y="186"/>
      <point x="319" y="309"/>
      <point x="319" y="309" type="curve" smooth="yes"/>
      <point x="319" y="309"/>
      <point x="344" y="430"/>
      <point x="415" y="430" type="curve" smooth="yes"/>
      <point x="464" y="430"/>
      <point x="501" y="393"/>
      <point x="501" y="309" type="curve" smooth="yes"/>
      <point x="501" y="223"/>
      <point x="464" y="186"/>
      <point x="415" y="186" type="curve" smooth="yes"/>
    </contour>
  </outline>
</glyph>
<glyph name="approxequal" format="1">
  <advance width="600"/>
  <unicode hex="2248"/>
  <outline>
    <contour>
      <point x="76" y="418"/>
      <point x="149" y="463"/>
      <point x="208" y="463" type="curve" smooth="yes"/>
      <point x="301" y="463"/>
      <point x="313" y="395"/>
      <point x="372" y="395" type="curve" smooth="yes"/>
      <point x="424" y="395"/>
      <point x="474" y="432"/>
      <point x="474" y="432" type="curve"/>
      <point x="492" y="401" type="line"/>
      <point x="484" y="391"/>
      <point x="436" y="349"/>
      <point x="377" y="349" type="curve" smooth="yes"/>
      <point x="284" y="349"/>
      <point x="271" y="415"/>
      <point x="211" y="415" type="curve" smooth="yes"/>
      <point x="159" y="415"/>
      <point x="89" y="370"/>
      <point x="89" y="370" type="curve"/>
      <point x="71" y="407" type="line"/>
    </contour>
    <contour>
      <point x="76" y="227"/>
      <point x="149" y="273"/>
      <point x="208" y="273" type="curve" smooth="yes"/>
      <point x="301" y="273"/>
      <point x="313" y="205"/>
      <point x="372" y="205" type="curve" smooth="yes"/>
      <point x="424" y="205"/>
      <point x="474" y="241"/>
      <point x="474" y="241" type="curve"/>
      <point x="492" y="211" type="line"/>
      <point x="484" y="201"/>
      <point x="436" y="158"/>
      <point x="377" y="158" type="curve" smooth="yes"/>
      <point x="284" y="158"/>
      <point x="271" y="224"/>
      <point x="211" y="224" type="curve" smooth="yes"/>
      <point x="159" y="224"/>
      <point x="89" y="179"/>
      <point x="89" y="179" type="curve"/>
      <point x="71" y="216" type="line"/>
    </contour>
  </outline>
</glyph>
<glyph name="notequal" format="1">
  <advance width="600"/>
  <unicode hex="2260"/>
  <outline>
    <contour>
      <point x="221" y="103" type="line"/>
      <point x="419" y="512" type="line"/>
      <point x="364" y="512" type="line"/>
      <point x="167" y="103" type="line"/>
    </contour>
    <component base="equal"/>
  </outline>
</glyph>
<glyph name="greaterequal" format="1">
  <advance width="600"/>
  <unicode hex="2265"/>
  <outline>
    <contour>
      <point x="165" y="613" type="line"/>
      <point x="138" y="571" type="line"/>
      <point x="421" y="388" type="line"/>
      <point x="471" y="441" type="line"/>
    </contour>
    <contour>
      <point x="420" y="441" type="line"/>
      <point x="420" y="378" type="line"/>
      <point x="471" y="378" type="line"/>
      <point x="471" y="441" type="line"/>
    </contour>
    <contour>
      <point x="421" y="431" type="line"/>
      <point x="138" y="248" type="line"/>
      <point x="165" y="206" type="line"/>
      <point x="471" y="378" type="line"/>
    </contour>
    <contour>
      <point x="127" y="169" type="line"/>
      <point x="127" y="118" type="line"/>
      <point x="471" y="118" type="line"/>
      <point x="471" y="169" type="line"/>
    </contour>
  </outline>
</glyph>
<glyph name="lozenge" format="1">
  <advance width="600"/>
  <unicode hex="25CA"/>
  <outline>
    <contour>
      <point x="275" y="672" type="line"/>
      <point x="482" y="331" type="line"/>
      <point x="536" y="350" type="line"/>
      <point x="326" y="700" type="line"/>
    </contour>
    <contour>
      <point x="275" y="700" type="line"/>
      <point x="275" y="655" type="line"/>
      <point x="326" y="655" type="line"/>
      <point x="326" y="700" type="line"/>
    </contour>
    <contour>
      <point x="65" y="350" type="line"/>
      <point x="119" y="331" type="line"/>
      <point x="326" y="672" type="line"/>
      <point x="275" y="700" type="line"/>
    </contour>
    <contour>
      <point x="536" y="350" type="line"/>
      <point x="482" y="369" type="line"/>
      <point x="275" y="28" type="line"/>
      <point x="326" y="0" type="line"/>
    </contour>
    <contour>
      <point x="326" y="45" type="line"/>
      <point x="275" y="45" type="line"/>
      <point x="275" y="0" type="line"/>
      <point x="326" y="0" type="line"/>
    </contour>
    <contour>
      <point x="326" y="28" type="line"/>
      <point x="119" y="369" type="line"/>
      <point x="65" y="350" type="line"/>
      <point x="275" y="0" type="line"/>
    </contour>
  </outline>
</glyph>
<glyph name="G.ss01" format="1">
  <advance width="600"/>
  <outline>
    <contour>
      <point x="468" y="-11"/>
      <point x="534" y="111"/>
      <point x="534" y="318" type="curve"/>
      <point x="480" y="330" type="line"/>
      <point x="480" y="104"/>
      <point x="414" y="41"/>
      <point x="317" y="41" type="curve" smooth="yes"/>
      <point x="206" y="41"/>
      <point x="134" y="125"/>
      <point x="134" y="348" type="curve" smooth="yes"/>
      <point x="134" y="571"/>
      <point x="204" y="654"/>
      <point x="318" y="654" type="curve" smooth="yes"/>
      <point x="389" y="654"/>
      <point x="431" y="628"/>
      <point x="459" y="573" type="curve"/>
      <point x="513" y="602" type="line"/>
      <point x="473" y="669"/>
      <point x="413" y="706"/>
      <point x="318" y="706" type="curve" smooth="yes"/>
      <point x="190" y="706"/>
      <point x="74" y="635"/>
      <point x="74" y="348" type="curve" smooth="yes"/>
      <point x="74" y="60"/>
      <point x="188" y="-11"/>
      <point x="317" y="-11" type="curve" smooth="yes"/>
    </contour>
    <contour>
      <point x="534" y="318" type="line"/>
      <point x="534" y="370" type="line"/>
      <point x="324" y="370" type="line"/>
      <point x="324" y="318" type="line"/>
    </contour>
  </outline>
</glyph>
<glyph name="Q.ss01" format="1">
  <advance width="600"/>
  <outline>
    <contour>
      <point x="423" y="-11"/>
      <point x="531" y="54"/>
      <point x="531" y="348" type="curve" smooth="yes"/>
      <point x="531" y="641"/>
      <point x="423" y="706"/>
      <point x="295" y="706" type="curve" smooth="yes"/>
      <point x="167" y="706"/>
      <point x="59" y="641"/>
      <point x="59" y="348" type="curve" smooth="yes"/>
      <point x="59" y="54"/>
      <point x="167" y="-11"/>
      <point x="295" y="-11" type="curve" smooth="yes"/>
    </contour>
    <contour>
      <point x="560" y="-59" type="line"/>
      <point x="551" y="2"/>
      <point x="457" y="69"/>
      <point x="348" y="45" type="curve"/>
      <point x="358" y="-5" type="line"/>
      <point x="430" y="16"/>
      <point x="505" y="-34"/>
      <point x="515" y="-100" type="curve"/>
    </contour>
    <contour>
      <point x="196" y="41"/>
      <point x="120" y="96"/>
      <point x="120" y="348" type="curve" smooth="yes"/>
      <point x="120" y="599"/>
      <point x="196" y="654"/>
      <point x="295" y="654" type="curve" smooth="yes"/>
      <point x="394" y="654"/>
      <point x="470" y="599"/>
      <point x="470" y="348" type="curve" smooth="yes"/>
      <point x="470" y="96"/>
      <point x="394" y="41"/>
      <point x="295" y="41" type="curve" smooth="yes"/>
    </contour>
  </outline>
</glyph>
<glyph name="X.ss01" format="1">
  <advance width="600"/>
  <outline>
    <contour>
      <point x="278" y="371" type="line"/>
      <point x="74" y="0" type="line"/>
      <point x="140" y="0" type="line"/>
      <point x="319" y="332" type="line"/>
    </contour>
    <contour>
      <point x="319" y="332" type="line"/>
      <point x="524" y="700" type="line"/>
      <point x="459" y="700" type="line"/>
      <point x="278" y="371" type="line"/>
    </contour>
    <contour>
      <point x="459" y="0" type="line"/>
      <point x="524" y="0" type="line"/>
      <point x="320" y="371" type="line"/>
      <point x="279" y="332" type="line"/>
    </contour>
    <contour>
      <point x="140" y="700" type="line"/>
      <point x="74" y="700" type="line"/>
      <point x="279" y="332" type="line"/>
      <point x="320" y="371" type="line"/>
    </contour>
  </outline>
</glyph>
<glyph name="a.ss01" format="1">
  <advance width="600"/>
  <outline>
    <contour>
      <point x="474" y="377" type="line"/>
      <point x="474" y="468"/>
      <point x="394" y="512"/>
      <point x="291" y="512" type="curve"/>
      <point x="200" y="512"/>
      <point x="140" y="489"/>
      <point x="106" y="455" type="curve"/>
      <point x="145" y="414" type="line"/>
      <point x="170" y="442"/>
      <point x="219" y="460"/>
      <point x="284" y="460" type="curve"/>
      <point x="362" y="460"/>
      <point x="417" y="436"/>
      <point x="417" y="365" type="curve"/>
    </contour>
    <contour>
      <point x="398" y="-11"/>
      <point x="454" y="76"/>
      <point x="454" y="76" type="curve"/>
      <point x="432" y="131" type="line"/>
      <point x="423" y="96"/>
      <point x="357" y="40"/>
      <point x="278" y="40" type="curve"/>
      <point x="186" y="40"/>
      <point x="133" y="65"/>
      <point x="133" y="153" type="curve"/>
      <point x="76" y="153" type="line"/>
      <point x="76" y="41"/>
      <point x="140" y="-11"/>
      <point x="261" y="-11" type="curve"/>
    </contour>
    <contour>
      <point x="133" y="153" type="line"/>
      <point x="133" y="248"/>
      <point x="179" y="265"/>
      <point x="315" y="265" type="curve"/>
      <point x="285" y="316" type="line"/>
      <point x="133" y="316"/>
      <point x="76" y="264"/>
      <point x="76" y="153" type="curve"/>
    </contour>
    <contour>
      <point x="530" y="-11"/>
      <point x="542" y="-8"/>
      <point x="549" y="-6" type="curve"/>
      <point x="549" y="43" type="line"/>
      <point x="547" y="43"/>
      <point x="537" y="39"/>
      <point x="522" y="39" type="curve"/>
      <point x="490" y="39"/>
      <point x="474" y="59"/>
      <point x="474" y="130" type="curve"/>
      <point x="417" y="116" type="line"/>
      <point x="417" y="42"/>
      <point x="446" y="-11"/>
      <point x="511" y="-11" type="curve"/>
    </contour>
    <contour>
      <point x="457" y="265" type="line"/>
      <point x="457" y="316" type="line"/>
      <point x="285" y="316" type="line"/>
      <point x="315" y="265" type="line"/>
    </contour>
    <contour>
      <point x="474" y="235" type="line"/>
      <point x="453" y="294" type="line"/>
      <point x="417" y="169" type="line"/>
      <point x="438" y="102" type="line"/>
    </contour>
    <contour>
      <point x="474" y="209" type="line"/>
      <point x="474" y="377" type="line"/>
      <point x="417" y="365" type="line"/>
      <point x="417" y="209" type="line"/>
    </contour>
  </outline>
</glyph>
<glyph name="g.ss01" format="1">
  <advance width="600"/>
  <outline>
    <contour>
      <point x="552" y="503" type="line"/>
      <point x="503" y="503"/>
      <point x="439" y="455"/>
      <point x="453" y="363" type="curve"/>
      <point x="500" y="351" type="line"/>
      <point x="496" y="434"/>
      <point x="538" y="448"/>
      <point x="567" y="449" type="curve"/>
    </contour>
    <contour>
      <point x="400" y="149"/>
      <point x="501" y="188"/>
      <point x="501" y="331" type="curve" smooth="yes"/>
      <point x="501" y="473"/>
      <point x="407" y="512"/>
      <point x="301" y="512" type="curve" smooth="yes"/>
      <point x="194" y="512"/>
      <point x="100" y="473"/>
      <point x="100" y="331" type="curve" smooth="yes"/>
      <point x="100" y="188"/>
      <point x="198" y="149"/>
      <point x="301" y="149" type="curve" smooth="yes"/>
    </contour>
    <contour>
      <point x="212" y="201"/>
      <point x="159" y="232"/>
      <point x="159" y="331" type="curve" smooth="yes"/>
      <point x="159" y="429"/>
      <point x="202" y="461"/>
      <point x="301" y="461" type="curve" smooth="yes"/>
      <point x="399" y="461"/>
      <point x="442" y="432"/>
      <point x="442" y="331" type="curve" smooth="yes"/>
      <point x="442" y="232"/>
      <point x="389" y="201"/>
      <point x="301" y="201" type="curve" smooth="yes"/>
    </contour>
    <contour>
      <point x="247" y="-1" type="line"/>
      <point x="257" y="50" type="line"/>
      <point x="225" y="51" type="line" smooth="yes"/>
      <point x="149" y="52"/>
      <point x="182" y="150"/>
      <point x="228" y="177" type="curve"/>
      <point x="192" y="197" type="line"/>
      <point x="167" y="179"/>
      <point x="121" y="144"/>
      <point x="117" y="92" type="curve" smooth="yes"/>
      <point x="113" y="37"/>
      <point x="155" y="-1"/>
      <point x="229" y="-1" type="curve" smooth="yes"/>
    </contour>
    <contour>
      <point x="87" y="-140"/>
      <point x="159" y="-186"/>
      <point x="307" y="-186" type="curve"/>
      <point x="307" y="-136" type="line"/>
      <point x="207" y="-136"/>
      <point x="159" y="-111"/>
      <point x="150" y="-70" type="curve" smooth="yes"/>
      <point x="142" y="-29"/>
      <point x="174" y="9"/>
      <point x="194" y="23" type="curve"/>
      <point x="160" y="43" type="line"/>
      <point x="140" y="31"/>
      <point x="87" y="-4"/>
      <point x="87" y="-65" type="curve" smooth="yes"/>
    </contour>
    <contour>
      <point x="522" y="8"/>
      <point x="478" y="50"/>
      <point x="382" y="50" type="curve"/>
      <point x="360" y="-1" type="line"/>
      <point x="457" y="-1"/>
      <point x="465" y="-30"/>
      <point x="459" y="-63" type="curve" smooth="yes"/>
      <point x="453" y="-99"/>
      <point x="413" y="-136"/>
      <point x="307" y="-136" type="curve"/>
      <point x="307" y="-186" type="line"/>
      <point x="457" y="-186"/>
      <point x="514" y="-121"/>
      <point x="518" y="-55" type="curve" smooth="yes"/>
    </contour>
    <contour>
      <point x="382" y="50" type="line"/>
      <point x="382" y="50"/>
      <point x="381" y="50"/>
      <point x="381" y="50" type="curve" smooth="yes"/>
      <point x="257" y="50" type="line"/>
      <point x="247" y="-1" type="line"/>
      <point x="360" y="-1" type="line"/>
    </contour>
  </outline>
</glyph>
<glyph name="i.ss01" format="1">
  <advance width="600"/>
  <outline>
    <contour>
      <point x="439" y="-11"/>
      <point x="480" y="-1"/>
      <point x="487" y="0" type="curve"/>
      <point x="487" y="50" type="line"/>
      <point x="480" y="48"/>
      <point x="432" y="38"/>
      <point x="393" y="38" type="curve"/>
      <point x="354" y="38"/>
      <point x="321" y="49"/>
      <point x="321" y="130" type="curve"/>
      <point x="264" y="119" type="line"/>
      <point x="264" y="16"/>
      <point x="316" y="-11"/>
      <point x="380" y="-11" type="curve"/>
    </contour>
    <contour>
      <point x="321" y="130" type="line"/>
      <point x="321" y="500" type="line"/>
      <point x="264" y="500" type="line"/>
      <point x="264" y="119" type="line"/>
    </contour>
    <contour>
      <point x="269" y="449" type="line"/>
      <point x="269" y="500" type="line"/>
      <point x="114" y="500" type="line"/>
      <point x="114" y="449" type="line"/>
    </contour>
    <contour>
      <point x="319" y="644"/>
      <point x="343" y="668"/>
      <point x="343" y="698" type="curve" smooth="yes"/>
      <point x="343" y="728"/>
      <point x="319" y="752"/>
      <point x="289" y="752" type="curve" smooth="yes"/>
      <point x="258" y="752"/>
      <point x="234" y="728"/>
      <point x="234" y="698" type="curve" smooth="yes"/>
      <point x="234" y="668"/>
      <point x="258" y="644"/>
      <point x="289" y="644" type="curve" smooth="yes"/>
    </contour>
  </outline>
</glyph>
<glyph name="l.ss01" format="1">
  <advance width="600"/>
  <outline>
    <contour>
      <point x="296" y="45" type="line"/>
      <point x="296" y="800" type="line"/>
      <point x="240" y="800" type="line"/>
      <point x="240" y="34" type="line"/>
    </contour>
    <contour>
      <point x="461" y="0" type="line"/>
      <point x="461" y="51" type="line"/>
      <point x="240" y="51" type="line"/>
      <point x="240" y="0" type="line"/>
    </contour>
    <contour>
      <point x="245" y="749" type="line"/>
      <point x="245" y="800" type="line"/>
      <point x="92" y="800" type="line"/>
      <point x="92" y="749" type="line"/>
    </contour>
  </outline>
</glyph>
<glyph name="t.ss01" format="1">
  <advance width="600"/>
  <outline>
    <contour>
      <point x="319" y="16" type="line"/>
      <point x="319" y="680" type="line"/>
      <point x="263" y="680" type="line"/>
      <point x="263" y="10" type="line"/>
    </contour>
    <contour>
      <point x="461" y="0" type="line"/>
      <point x="461" y="51" type="line"/>
      <point x="279" y="51" type="line"/>
      <point x="279" y="0" type="line"/>
    </contour>
    <contour>
      <point x="504" y="449" type="line"/>
      <point x="504" y="500" type="line"/>
      <point x="127" y="500" type="line"/>
      <point x="127" y="449" type="line"/>
    </contour>
  </outline>
</glyph>
<glyph name="three.ss01" format="1">
  <advance width="600"/>
  <outline>
    <contour>
      <point x="448" y="-11"/>
      <point x="532" y="79"/>
      <point x="532" y="207" type="curve" smooth="yes"/>
      <point x="532" y="336"/>
      <point x="419" y="417"/>
      <point x="306" y="379" type="curve"/>
      <point x="270" y="322" type="line"/>
      <point x="369" y="364"/>
      <point x="458" y="315"/>
      <point x="458" y="207" type="curve" smooth="yes"/>
      <point x="458" y="114"/>
      <point x="401" y="54"/>
      <point x="305" y="54" type="curve" smooth="yes"/>
      <point x="232" y="54"/>
      <point x="176" y="84"/>
      <point x="149" y="136" type="curve"/>
      <point x="80" y="99" type="line"/>
      <point x="120" y="29"/>
      <point x="200" y="-11"/>
      <point x="308" y="-11" type="curve" smooth="yes"/>
    </contour>
    <contour>
      <point x="426" y="636" type="line"/>
      <point x="218" y="373" type="line"/>
      <point x="270" y="322" type="line"/>
      <point x="513" y="636" type="line"/>
    </contour>
    <contour>
      <point x="513" y="700" type="line"/>
      <point x="114" y="700" type="line"/>
      <point x="114" y="636" type="line"/>
      <point x="513" y="636" type="line"/>
    </contour>
  </outline>
</glyph>
<glyph name="x.ss01" format="1">
  <advance width="600"/>
  <outline>
    <contour>
      <point x="278" y="265" type="line"/>
      <point x="84" y="0" type="line"/>
      <point x="155" y="0" type="line"/>
      <point x="319" y="237" type="line"/>
    </contour>
    <contour>
      <point x="319" y="237" type="line"/>
      <point x="519" y="500" type="line"/>
      <point x="449" y="500" type="line"/>
      <point x="278" y="265" type="line"/>
    </contour>
    <contour>
      <point x="444" y="0" type="line"/>
      <point x="514" y="0" type="line"/>
      <point x="320" y="265" type="line"/>
      <point x="279" y="237" type="line"/>
    </contour>
    <contour>
      <point x="155" y="500" type="line"/>
      <point x="84" y="500" type="line"/>
      <point x="279" y="237" type="line"/>
      <point x="320" y="265" type="line"/>
    </contour>
  </outline>
</glyph>
